<?xml version="1.0" encoding="utf-8"?>
<!-- Generator: Adobe Illustrator 19.2.1, SVG Export Plug-In . SVG Version: 6.00 Build 0)  -->
<svg version="1.1" id="Calque_1" xmlns="http://www.w3.org/2000/svg" xmlns:xlink="http://www.w3.org/1999/xlink" x="0px" y="0px"
	 viewBox="0 0 24.7 24.7" style="enable-background:new 0 0 24.7 24.7;" xml:space="preserve">
<style type="text/css">
	.st0{clip-path:url(#SVGID_2_);}
	.st1{clip-path:url(#SVGID_4_);}
	.st2{clip-path:url(#SVGID_6_);fill:#221E1F;}
	.st3{clip-path:url(#SVGID_6_);fill:#FFFFFF;}
</style>
<g>
	<defs>
		<rect id="SVGID_1_" x="0" y="0" width="24.7" height="24.7"/>
	</defs>
	<clipPath id="SVGID_2_">
		<use xlink:href="#SVGID_1_"  style="overflow:visible;"/>
	</clipPath>
	<g class="st0">
		<defs>
			<rect id="SVGID_3_" x="0" y="0" width="24.7" height="24.7"/>
		</defs>
		<clipPath id="SVGID_4_">
			<use xlink:href="#SVGID_3_"  style="overflow:visible;"/>
		</clipPath>
		<g class="st1">
			<g>
				<defs>
					<rect id="SVGID_5_" x="-17" y="-13" width="58.7" height="38.7"/>
				</defs>
				<clipPath id="SVGID_6_">
					<use xlink:href="#SVGID_5_"  style="overflow:visible;"/>
				</clipPath>
				<path class="st2" d="M12.3,24.7c6.8,0,12.3-5.5,12.3-12.3S19.1,0,12.3,0S0,5.5,0,12.4S5.5,24.7,12.3,24.7"/>
				<path class="st3" d="M17.3,8.8H14v0.9h3.3V8.8z M14.8,11.8c-0.2,0.2-0.3,0.5-0.4,0.9h2.5c0-0.4-0.2-0.7-0.4-0.9
					c-0.2-0.2-0.5-0.3-0.9-0.3C15.3,11.5,15,11.6,14.8,11.8 M17,10.6c0.4,0.2,0.7,0.5,1,0.8c0.2,0.3,0.4,0.7,0.5,1.2
					c0,0.3,0.1,0.6,0,1.1h-4.1c0,0.6,0.2,1,0.6,1.2c0.2,0.1,0.5,0.2,0.8,0.2c0.3,0,0.6-0.1,0.8-0.3c0.1-0.1,0.2-0.2,0.3-0.4h1.5
					c0,0.3-0.2,0.7-0.5,1c-0.5,0.5-1.2,0.8-2.1,0.8c-0.8,0-1.4-0.2-2-0.7c-0.6-0.5-0.9-1.2-0.9-2.3c0-1,0.3-1.7,0.8-2.2
					c0.5-0.5,1.2-0.8,2-0.8C16.2,10.3,16.6,10.4,17,10.6 M7.7,12.7v2h1.8c0.3,0,0.6,0,0.8-0.1c0.3-0.2,0.5-0.5,0.5-1
					c0-0.4-0.2-0.7-0.5-0.8c-0.2-0.1-0.4-0.1-0.8-0.1H7.7z M7.7,9.8v1.7h1.9c0.3,0,0.6-0.1,0.8-0.2c0.2-0.1,0.3-0.3,0.3-0.7
					c0-0.4-0.1-0.6-0.4-0.7C10,9.8,9.7,9.8,9.3,9.8H7.7z M11.8,9.3c0.2,0.3,0.3,0.7,0.3,1.2c0,0.5-0.1,0.8-0.4,1.1
					c-0.1,0.2-0.3,0.3-0.6,0.4c0.4,0.1,0.7,0.4,0.9,0.7c0.2,0.3,0.3,0.7,0.3,1.1c0,0.5-0.1,0.9-0.3,1.2c-0.1,0.2-0.3,0.4-0.5,0.6
					c-0.2,0.2-0.5,0.3-0.9,0.4c-0.3,0.1-0.7,0.1-1.1,0.1H6.1V8.5h3.7C10.7,8.5,11.4,8.7,11.8,9.3"/>
			</g>
		</g>
	</g>
</g>
</svg>
