<?xml version="1.0" encoding="utf-8"?>
<!-- Generator: Adobe Illustrator 19.2.1, SVG Export Plug-In . SVG Version: 6.00 Build 0)  -->
<svg version="1.1" id="Calque_1" xmlns="http://www.w3.org/2000/svg" xmlns:xlink="http://www.w3.org/1999/xlink" x="0px" y="0px"
	 viewBox="0 0 24.7 24.7" style="enable-background:new 0 0 24.7 24.7;" xml:space="preserve">
<style type="text/css">
	.st0{clip-path:url(#SVGID_2_);}
	.st1{clip-path:url(#SVGID_4_);}
	.st2{clip-path:url(#SVGID_6_);fill:#221E1F;}
	.st3{clip-path:url(#SVGID_6_);fill:#FFFFFF;}
</style>
<g>
	<defs>
		<rect id="SVGID_1_" x="0.1" y="0.1" width="24.7" height="24.7"/>
	</defs>
	<clipPath id="SVGID_2_">
		<use xlink:href="#SVGID_1_"  style="overflow:visible;"/>
	</clipPath>
	<g class="st0">
		<defs>
			<rect id="SVGID_3_" x="0.1" y="0.1" width="24.7" height="24.7"/>
		</defs>
		<clipPath id="SVGID_4_">
			<use xlink:href="#SVGID_3_"  style="overflow:visible;"/>
		</clipPath>
		<g class="st1">
			<g>
				<defs>
					<rect id="SVGID_5_" x="-16.9" y="-12.9" width="58.7" height="38.7"/>
				</defs>
				<clipPath id="SVGID_6_">
					<use xlink:href="#SVGID_5_"  style="overflow:visible;"/>
				</clipPath>
				<path class="st2" d="M12.4,24.8c6.8,0,12.3-5.5,12.3-12.3c0-6.8-5.5-12.3-12.3-12.3S0.1,5.6,0.1,12.4
					C0.1,19.2,5.6,24.8,12.4,24.8"/>
				<path class="st3" d="M9.4,10.3h1.3V9.1c0-0.5,0-1.4,0.4-1.9c0.4-0.6,1-0.9,2-0.9c1.6,0,2.3,0.2,2.3,0.2L15,8.4
					c0,0-0.5-0.2-1-0.2c-0.5,0-0.9,0.2-0.9,0.7v1.4h2L15,12.2h-1.9v6.4h-2.4v-6.4H9.4V10.3z"/>
			</g>
		</g>
	</g>
</g>
</svg>
