<?xml version="1.0" encoding="utf-8"?>
<!-- Generator: Adobe Illustrator 19.2.1, SVG Export Plug-In . SVG Version: 6.00 Build 0)  -->
<svg version="1.1" id="Calque_1" xmlns="http://www.w3.org/2000/svg" xmlns:xlink="http://www.w3.org/1999/xlink" x="0px" y="0px"
	 viewBox="0 0 24.7 24.7" style="enable-background:new 0 0 24.7 24.7;" xml:space="preserve">
<style type="text/css">
	.st0{clip-path:url(#SVGID_2_);}
	.st1{clip-path:url(#SVGID_4_);}
	.st2{clip-path:url(#SVGID_6_);fill:#221E1F;}
	.st3{clip-path:url(#SVGID_6_);fill:#FFFFFF;}
</style>
<g>
	<defs>
		<rect id="SVGID_1_" x="0.1" y="0" width="24.7" height="24.7"/>
	</defs>
	<clipPath id="SVGID_2_">
		<use xlink:href="#SVGID_1_"  style="overflow:visible;"/>
	</clipPath>
	<g class="st0">
		<defs>
			<rect id="SVGID_3_" x="0.1" y="0" width="24.7" height="24.7"/>
		</defs>
		<clipPath id="SVGID_4_">
			<use xlink:href="#SVGID_3_"  style="overflow:visible;"/>
		</clipPath>
		<g class="st1">
			<g>
				<defs>
					<rect id="SVGID_5_" x="-16.9" y="-13" width="58.7" height="38.7"/>
				</defs>
				<clipPath id="SVGID_6_">
					<use xlink:href="#SVGID_5_"  style="overflow:visible;"/>
				</clipPath>
				<path class="st2" d="M12.4,24.7c6.8,0,12.3-5.5,12.3-12.3S19.2,0,12.4,0C5.6,0,0.1,5.5,0.1,12.3S5.6,24.7,12.4,24.7"/>
				<path class="st3" d="M18.6,17.5h-2.7v-4c0-1-0.4-1.8-1.4-1.8c-0.7,0-1.1,0.5-1.3,0.9c-0.1,0.2-0.1,0.4-0.1,0.6v4.2h-2.7
					c0,0,0-7.1,0-7.7h2.7V11c0.2-0.5,1-1.3,2.4-1.3c1.7,0,3.1,1.1,3.1,3.5V17.5z M7.7,8.8L7.7,8.8c-0.9,0-1.5-0.6-1.5-1.3
					c0-0.8,0.6-1.3,1.5-1.3s1.4,0.6,1.5,1.3C9.1,8.2,8.6,8.8,7.7,8.8 M8.9,17.5H6.5V9.8h2.4V17.5z"/>
			</g>
		</g>
	</g>
</g>
</svg>
