<?xml version="1.0" encoding="utf-8"?>
<!-- Generator: Adobe Illustrator 19.2.1, SVG Export Plug-In . SVG Version: 6.00 Build 0)  -->
<svg version="1.1" id="Calque_1" xmlns="http://www.w3.org/2000/svg" xmlns:xlink="http://www.w3.org/1999/xlink" x="0px" y="0px"
	 viewBox="0 0 24.7 24.7" style="enable-background:new 0 0 24.7 24.7;" xml:space="preserve">
<style type="text/css">
	.st0{clip-path:url(#SVGID_2_);}
	.st1{clip-path:url(#SVGID_4_);}
	.st2{clip-path:url(#SVGID_6_);fill:#221E1F;}
	.st3{clip-path:url(#SVGID_6_);fill:#FFFFFF;}
</style>
<g>
	<defs>
		<rect id="SVGID_1_" x="-0.2" y="0.1" width="24.7" height="24.7"/>
	</defs>
	<clipPath id="SVGID_2_">
		<use xlink:href="#SVGID_1_"  style="overflow:visible;"/>
	</clipPath>
	<g class="st0">
		<defs>
			<rect id="SVGID_3_" x="-0.2" y="0.1" width="24.7" height="24.7"/>
		</defs>
		<clipPath id="SVGID_4_">
			<use xlink:href="#SVGID_3_"  style="overflow:visible;"/>
		</clipPath>
		<g class="st1">
			<g>
				<defs>
					<rect id="SVGID_5_" x="-17.2" y="-12.9" width="58.7" height="38.7"/>
				</defs>
				<clipPath id="SVGID_6_">
					<use xlink:href="#SVGID_5_"  style="overflow:visible;"/>
				</clipPath>
				<path class="st2" d="M12.2,24.7c6.8,0,12.3-5.5,12.3-12.3c0-6.8-5.5-12.3-12.3-12.3S-0.2,5.6-0.2,12.4
					C-0.2,19.2,5.4,24.7,12.2,24.7"/>
				<path class="st3" d="M18.4,9.2c-0.5,0.2-0.9,0.3-1.5,0.4c0.5-0.3,0.9-0.8,1.1-1.4c-0.5,0.3-1,0.5-1.6,0.6
					C15.9,8.3,15.3,8,14.6,8C13.2,8,12,9.1,12,10.5c0,0.2,0,0.4,0.1,0.6C10,11,8.1,10,6.9,8.4C6.7,8.8,6.5,9.2,6.5,9.7
					c0,0.9,0.4,1.7,1.1,2.1c-0.4,0-0.8-0.1-1.1-0.3v0c0,1.2,0.9,2.3,2,2.5c-0.2,0.1-0.4,0.1-0.7,0.1c-0.2,0-0.3,0-0.5,0
					c0.3,1,1.3,1.7,2.4,1.8c-0.9,0.7-2,1.1-3.1,1.1c-0.2,0-0.4,0-0.6,0C7.1,17.6,8.5,18,9.9,18c4.7,0,7.2-3.9,7.2-7.2
					c0-0.1,0-0.2,0-0.3C17.6,10.1,18,9.7,18.4,9.2"/>
			</g>
		</g>
	</g>
</g>
</svg>
