<?xml version="1.0" encoding="utf-8"?>
<!-- Generator: Adobe Illustrator 19.2.1, SVG Export Plug-In . SVG Version: 6.00 Build 0)  -->
<svg version="1.1" id="Calque_1" xmlns="http://www.w3.org/2000/svg" xmlns:xlink="http://www.w3.org/1999/xlink" x="0px" y="0px"
	 viewBox="0 0 24.7 24.7" style="enable-background:new 0 0 24.7 24.7;" xml:space="preserve">
<style type="text/css">
	.st0{clip-path:url(#SVGID_2_);}
	.st1{clip-path:url(#SVGID_4_);}
	.st2{clip-path:url(#SVGID_6_);fill:#221E1F;}
	.st3{clip-path:url(#SVGID_6_);fill:#FFFFFF;}
</style>
<g>
	<defs>
		<rect id="SVGID_1_" x="-0.1" y="0" width="24.7" height="24.7"/>
	</defs>
	<clipPath id="SVGID_2_">
		<use xlink:href="#SVGID_1_"  style="overflow:visible;"/>
	</clipPath>
	<g class="st0">
		<defs>
			<rect id="SVGID_3_" x="-0.1" y="0" width="24.7" height="24.7"/>
		</defs>
		<clipPath id="SVGID_4_">
			<use xlink:href="#SVGID_3_"  style="overflow:visible;"/>
		</clipPath>
		<g class="st1">
			<g>
				<defs>
					<rect id="SVGID_5_" x="-17.1" y="-13" width="58.7" height="38.7"/>
				</defs>
				<clipPath id="SVGID_6_">
					<use xlink:href="#SVGID_5_"  style="overflow:visible;"/>
				</clipPath>
				<path class="st2" d="M12.3,24.6c6.8,0,12.3-5.5,12.3-12.3S19.1,0,12.3,0S-0.1,5.5-0.1,12.3S5.5,24.6,12.3,24.6"/>
				<path class="st3" d="M18.4,9.7c-0.1,1.2-0.9,2.8-2.5,4.9c-1.7,2.2-3.1,3.3-4.3,3.3c-0.7,0-1.3-0.7-1.8-2c-0.3-1.2-0.7-2.4-1-3.6
					c-0.4-1.3-0.8-2-1.2-2c-0.1,0-0.4,0.2-1,0.6l-0.6-0.7C6.7,9.6,7.3,9,7.9,8.5c0.8-0.7,1.4-1.1,1.8-1.1c1-0.1,1.5,0.6,1.8,2
					c0.2,1.5,0.4,2.5,0.5,2.8c0.3,1.3,0.6,1.9,0.9,1.9c0.3,0,0.6-0.4,1.2-1.2c0.5-0.8,0.8-1.4,0.8-1.9c0.1-0.7-0.2-1-0.8-1
					c-0.3,0-0.6,0.1-0.9,0.2c0.6-2,1.8-2.9,3.5-2.9C17.9,7.3,18.5,8.1,18.4,9.7"/>
			</g>
		</g>
	</g>
</g>
</svg>
