<svg xmlns="http://www.w3.org/2000/svg" viewBox="0 0 224.32 199.72"><title>people</title><circle cx="72.48" cy="185.29" r="1.29"/><path d="M120.09,223.66s2.21,0.14,2.58.69,0.31,5.17.28,5.32a2,2,0,0,1-1,0v-4s-0.09-.73-0.34-0.48-0.12,11.48-.12,11.48h-0.86l-0.68-6v-7" transform="translate(-47.66 -36.88)"/><path d="M119.9,223.66s-2.22.14-2.59,0.69-0.3,5.17-.27,5.32a2,2,0,0,0,1,0v-4s0.08-.73.33-0.48,0.11,11.48.11,11.48h0.9l0.66-6v-7" transform="translate(-47.66 -36.88)"/><circle cx="65.48" cy="185.29" r="1.29"/><path d="M113.09,223.66s2.21,0.14,2.58.69,0.31,5.17.28,5.32a2,2,0,0,1-1,0v-4s-0.09-.73-0.34-0.48-0.12,11.48-.12,11.48h-0.86l-0.68-6v-7" transform="translate(-47.66 -36.88)"/><path d="M112.9,223.66s-2.22.14-2.59,0.69-0.3,5.17-.27,5.32a2,2,0,0,0,1,0v-4s0.08-.73.33-0.48,0.11,11.48.11,11.48h0.9l0.66-6v-7" transform="translate(-47.66 -36.88)"/><circle cx="57.48" cy="185.29" r="1.29"/><path d="M105.09,223.66s2.21,0.14,2.58.69,0.31,5.17.28,5.32a2,2,0,0,1-1,0v-4s-0.09-.73-0.34-0.48-0.12,11.48-.12,11.48h-0.86l-0.68-6v-7" transform="translate(-47.66 -36.88)"/><path d="M104.9,223.66s-2.22.14-2.59,0.69-0.3,5.17-.27,5.32a2,2,0,0,0,1,0v-4s0.08-.73.33-0.48,0.11,11.48.11,11.48h0.9l0.66-6v-7" transform="translate(-47.66 -36.88)"/><circle cx="50.48" cy="185.29" r="1.29"/><path d="M98.09,223.66s2.21,0.14,2.58.69,0.31,5.17.28,5.32a2,2,0,0,1-1,0v-4s-0.09-.73-0.34-0.48-0.12,11.48-.12,11.48H98.68l-0.68-6v-7" transform="translate(-47.66 -36.88)"/><path d="M97.9,223.66s-2.22.14-2.59,0.69-0.3,5.17-.27,5.32a2,2,0,0,0,1,0v-4s0.08-.73.33-0.48,0.11,11.48.11,11.48h0.9l0.66-6v-7" transform="translate(-47.66 -36.88)"/><circle cx="42.48" cy="185.29" r="1.29"/><path d="M90.09,223.66s2.21,0.14,2.58.69,0.31,5.17.28,5.32a2,2,0,0,1-1,0v-4s-0.09-.73-0.34-0.48-0.12,11.48-.12,11.48H90.68l-0.68-6v-7" transform="translate(-47.66 -36.88)"/><path d="M89.9,223.66s-2.22.14-2.59,0.69-0.3,5.17-.27,5.32a2,2,0,0,0,1,0v-4s0.08-.73.33-0.48,0.11,11.48.11,11.48h0.9l0.66-6v-7" transform="translate(-47.66 -36.88)"/><circle cx="35.48" cy="185.29" r="1.29"/><path d="M83.09,223.66s2.21,0.14,2.58.69,0.31,5.17.28,5.32a2,2,0,0,1-1,0v-4s-0.09-.73-0.34-0.48-0.12,11.48-.12,11.48H83.68l-0.68-6v-7" transform="translate(-47.66 -36.88)"/><path d="M82.9,223.66s-2.22.14-2.59,0.69-0.3,5.17-.27,5.32a2,2,0,0,0,1,0v-4s0.08-.73.33-0.48,0.11,11.48.11,11.48h0.9l0.66-6v-7" transform="translate(-47.66 -36.88)"/><circle cx="71.48" cy="126.29" r="1.29"/><path d="M119.09,164.66s2.21,0.14,2.58.69,0.31,5.17.28,5.32a2,2,0,0,1-1,0v-4s-0.09-.73-0.34-0.48-0.12,11.48-.12,11.48h-0.86l-0.68-6v-7" transform="translate(-47.66 -36.88)"/><path d="M118.9,164.66s-2.22.14-2.59,0.69-0.3,5.17-.27,5.32a2,2,0,0,0,1,0v-4s0.08-.73.33-0.48,0.11,11.48.11,11.48h0.9l0.66-6v-7" transform="translate(-47.66 -36.88)"/><circle cx="64.48" cy="126.29" r="1.29"/><path d="M112.09,164.66s2.21,0.14,2.58.69,0.31,5.17.28,5.32a2,2,0,0,1-1,0v-4s-0.09-.73-0.34-0.48-0.12,11.48-.12,11.48h-0.86l-0.68-6v-7" transform="translate(-47.66 -36.88)"/><path d="M111.9,164.66s-2.22.14-2.59,0.69-0.3,5.17-.27,5.32a2,2,0,0,0,1,0v-4s0.08-.73.33-0.48,0.11,11.48.11,11.48h0.9l0.66-6v-7" transform="translate(-47.66 -36.88)"/><circle cx="56.48" cy="126.29" r="1.29"/><path d="M104.09,164.66s2.21,0.14,2.58.69,0.31,5.17.28,5.32a2,2,0,0,1-1,0v-4s-0.09-.73-0.34-0.48-0.12,11.48-.12,11.48h-0.86l-0.68-6v-7" transform="translate(-47.66 -36.88)"/><path d="M103.9,164.66s-2.22.14-2.59,0.69-0.3,5.17-.27,5.32a2,2,0,0,0,1,0v-4s0.08-.73.33-0.48,0.11,11.48.11,11.48h0.9l0.66-6v-7" transform="translate(-47.66 -36.88)"/><circle cx="49.48" cy="126.29" r="1.29"/><path d="M97.09,164.66s2.21,0.14,2.58.69,0.31,5.17.28,5.32a2,2,0,0,1-1,0v-4s-0.09-.73-0.34-0.48-0.12,11.48-.12,11.48H97.68l-0.68-6v-7" transform="translate(-47.66 -36.88)"/><path d="M96.9,164.66s-2.22.14-2.59,0.69-0.3,5.17-.27,5.32a2,2,0,0,0,1,0v-4s0.08-.73.33-0.48,0.11,11.48.11,11.48h0.9l0.66-6v-7" transform="translate(-47.66 -36.88)"/><circle cx="41.48" cy="126.29" r="1.29"/><path d="M89.09,164.66s2.21,0.14,2.58.69,0.31,5.17.28,5.32a2,2,0,0,1-1,0v-4s-0.09-.73-0.34-0.48-0.12,11.48-.12,11.48H89.68l-0.68-6v-7" transform="translate(-47.66 -36.88)"/><path d="M88.9,164.66s-2.22.14-2.59,0.69-0.3,5.17-.27,5.32a2,2,0,0,0,1,0v-4s0.08-.73.33-0.48,0.11,11.48.11,11.48h0.9l0.66-6v-7" transform="translate(-47.66 -36.88)"/><circle cx="34.48" cy="126.29" r="1.29"/><path d="M82.09,164.66s2.21,0.14,2.58.69,0.31,5.17.28,5.32a2,2,0,0,1-1,0v-4s-0.09-.73-0.34-0.48-0.12,11.48-.12,11.48H82.68l-0.68-6v-7" transform="translate(-47.66 -36.88)"/><path d="M81.9,164.66s-2.22.14-2.59,0.69-0.3,5.17-.27,5.32a2,2,0,0,0,1,0v-4s0.08-.73.33-0.48,0.11,11.48.11,11.48h0.9l0.66-6v-7" transform="translate(-47.66 -36.88)"/><circle cx="116.48" cy="126.29" r="1.29"/><path d="M164.09,164.66s2.21,0.14,2.58.69,0.31,5.17.28,5.32a2,2,0,0,1-1,0v-4s-0.09-.73-0.34-0.48-0.12,11.48-.12,11.48h-0.86l-0.68-6v-7" transform="translate(-47.66 -36.88)"/><path d="M163.9,164.66s-2.22.14-2.59,0.69-0.3,5.17-.27,5.32a2,2,0,0,0,1,0v-4s0.08-.73.33-0.48,0.11,11.48.11,11.48h0.9l0.66-6v-7" transform="translate(-47.66 -36.88)"/><circle cx="109.48" cy="126.29" r="1.29"/><path d="M157.09,164.66s2.21,0.14,2.58.69,0.31,5.17.28,5.32a2,2,0,0,1-1,0v-4s-0.09-.73-0.34-0.48-0.12,11.48-.12,11.48h-0.86l-0.68-6v-7" transform="translate(-47.66 -36.88)"/><path d="M156.9,164.66s-2.22.14-2.59,0.69-0.3,5.17-.27,5.32a2,2,0,0,0,1,0v-4s0.08-.73.33-0.48,0.11,11.48.11,11.48h0.9l0.66-6v-7" transform="translate(-47.66 -36.88)"/><circle cx="101.48" cy="126.29" r="1.29"/><path d="M149.09,164.66s2.21,0.14,2.58.69,0.31,5.17.28,5.32a2,2,0,0,1-1,0v-4s-0.09-.73-0.34-0.48-0.12,11.48-.12,11.48h-0.86l-0.68-6v-7" transform="translate(-47.66 -36.88)"/><path d="M148.9,164.66s-2.22.14-2.59,0.69-0.3,5.17-.27,5.32a2,2,0,0,0,1,0v-4s0.08-.73.33-0.48,0.11,11.48.11,11.48h0.9l0.66-6v-7" transform="translate(-47.66 -36.88)"/><circle cx="94.48" cy="126.29" r="1.29"/><path d="M142.09,164.66s2.21,0.14,2.58.69,0.31,5.17.28,5.32a2,2,0,0,1-1,0v-4s-0.09-.73-0.34-0.48-0.12,11.48-.12,11.48h-0.86l-0.68-6v-7" transform="translate(-47.66 -36.88)"/><path d="M141.9,164.66s-2.22.14-2.59,0.69-0.3,5.17-.27,5.32a2,2,0,0,0,1,0v-4s0.08-.73.33-0.48,0.11,11.48.11,11.48h0.9l0.66-6v-7" transform="translate(-47.66 -36.88)"/><circle cx="86.48" cy="126.29" r="1.29"/><path d="M134.09,164.66s2.21,0.14,2.58.69,0.31,5.17.28,5.32a2,2,0,0,1-1,0v-4s-0.09-.73-0.34-0.48-0.12,11.48-.12,11.48h-0.86l-0.68-6v-7" transform="translate(-47.66 -36.88)"/><path d="M133.9,164.66s-2.22.14-2.59,0.69-0.3,5.17-.27,5.32a2,2,0,0,0,1,0v-4s0.08-.73.33-0.48,0.11,11.48.11,11.48h0.9l0.66-6v-7" transform="translate(-47.66 -36.88)"/><circle cx="79.48" cy="126.29" r="1.29"/><path d="M127.09,164.66s2.21,0.14,2.58.69,0.31,5.17.28,5.32a2,2,0,0,1-1,0v-4s-0.09-.73-0.34-0.48-0.12,11.48-.12,11.48h-0.86l-0.68-6v-7" transform="translate(-47.66 -36.88)"/><path d="M126.9,164.66s-2.22.14-2.59,0.69-0.3,5.17-.27,5.32a2,2,0,0,0,1,0v-4s0.08-.73.33-0.48,0.11,11.48.11,11.48h0.9l0.66-6v-7" transform="translate(-47.66 -36.88)"/><circle cx="71.48" cy="67.29" r="1.29"/><path d="M119.09,105.66s2.21,0.14,2.58.69,0.31,5.17.28,5.32a2,2,0,0,1-1,0v-4s-0.09-.73-0.34-0.48-0.12,11.48-.12,11.48h-0.86l-0.68-6v-7" transform="translate(-47.66 -36.88)"/><path d="M118.9,105.66s-2.22.14-2.59,0.69-0.3,5.17-.27,5.32a2,2,0,0,0,1,0v-4s0.08-.73.33-0.48,0.11,11.48.11,11.48h0.9l0.66-6v-7" transform="translate(-47.66 -36.88)"/><circle cx="64.48" cy="67.29" r="1.29"/><path d="M112.09,105.66s2.21,0.14,2.58.69,0.31,5.17.28,5.32a2,2,0,0,1-1,0v-4s-0.09-.73-0.34-0.48-0.12,11.48-.12,11.48h-0.86l-0.68-6v-7" transform="translate(-47.66 -36.88)"/><path d="M111.9,105.66s-2.22.14-2.59,0.69-0.3,5.17-.27,5.32a2,2,0,0,0,1,0v-4s0.08-.73.33-0.48,0.11,11.48.11,11.48h0.9l0.66-6v-7" transform="translate(-47.66 -36.88)"/><circle cx="56.48" cy="67.29" r="1.29"/><path d="M104.09,105.66s2.21,0.14,2.58.69,0.31,5.17.28,5.32a2,2,0,0,1-1,0v-4s-0.09-.73-0.34-0.48-0.12,11.48-.12,11.48h-0.86l-0.68-6v-7" transform="translate(-47.66 -36.88)"/><path d="M103.9,105.66s-2.22.14-2.59,0.69-0.3,5.17-.27,5.32a2,2,0,0,0,1,0v-4s0.08-.73.33-0.48,0.11,11.48.11,11.48h0.9l0.66-6v-7" transform="translate(-47.66 -36.88)"/><circle cx="49.48" cy="67.29" r="1.29"/><path d="M97.09,105.66s2.21,0.14,2.58.69,0.31,5.17.28,5.32a2,2,0,0,1-1,0v-4s-0.09-.73-0.34-0.48-0.12,11.48-.12,11.48H97.68l-0.68-6v-7" transform="translate(-47.66 -36.88)"/><path d="M96.9,105.66s-2.22.14-2.59,0.69-0.3,5.17-.27,5.32a2,2,0,0,0,1,0v-4s0.08-.73.33-0.48,0.11,11.48.11,11.48h0.9l0.66-6v-7" transform="translate(-47.66 -36.88)"/><circle cx="41.48" cy="67.29" r="1.29"/><path d="M89.09,105.66s2.21,0.14,2.58.69,0.31,5.17.28,5.32a2,2,0,0,1-1,0v-4s-0.09-.73-0.34-0.48-0.12,11.48-.12,11.48H89.68l-0.68-6v-7" transform="translate(-47.66 -36.88)"/><path d="M88.9,105.66s-2.22.14-2.59,0.69-0.3,5.17-.27,5.32a2,2,0,0,0,1,0v-4s0.08-.73.33-0.48,0.11,11.48.11,11.48h0.9l0.66-6v-7" transform="translate(-47.66 -36.88)"/><circle cx="34.48" cy="67.29" r="1.29"/><path d="M82.09,105.66s2.21,0.14,2.58.69,0.31,5.17.28,5.32a2,2,0,0,1-1,0v-4s-0.09-.73-0.34-0.48-0.12,11.48-.12,11.48H82.68l-0.68-6v-7" transform="translate(-47.66 -36.88)"/><path d="M81.9,105.66s-2.22.14-2.59,0.69-0.3,5.17-.27,5.32a2,2,0,0,0,1,0v-4s0.08-.73.33-0.48,0.11,11.48.11,11.48h0.9l0.66-6v-7" transform="translate(-47.66 -36.88)"/><circle cx="116.48" cy="67.29" r="1.29"/><path d="M164.09,105.66s2.21,0.14,2.58.69,0.31,5.17.28,5.32a2,2,0,0,1-1,0v-4s-0.09-.73-0.34-0.48-0.12,11.48-.12,11.48h-0.86l-0.68-6v-7" transform="translate(-47.66 -36.88)"/><path d="M163.9,105.66s-2.22.14-2.59,0.69-0.3,5.17-.27,5.32a2,2,0,0,0,1,0v-4s0.08-.73.33-0.48,0.11,11.48.11,11.48h0.9l0.66-6v-7" transform="translate(-47.66 -36.88)"/><circle cx="109.48" cy="67.29" r="1.29"/><path d="M157.09,105.66s2.21,0.14,2.58.69,0.31,5.17.28,5.32a2,2,0,0,1-1,0v-4s-0.09-.73-0.34-0.48-0.12,11.48-.12,11.48h-0.86l-0.68-6v-7" transform="translate(-47.66 -36.88)"/><path d="M156.9,105.66s-2.22.14-2.59,0.69-0.3,5.17-.27,5.32a2,2,0,0,0,1,0v-4s0.08-.73.33-0.48,0.11,11.48.11,11.48h0.9l0.66-6v-7" transform="translate(-47.66 -36.88)"/><circle cx="101.48" cy="67.29" r="1.29"/><path d="M149.09,105.66s2.21,0.14,2.58.69,0.31,5.17.28,5.32a2,2,0,0,1-1,0v-4s-0.09-.73-0.34-0.48-0.12,11.48-.12,11.48h-0.86l-0.68-6v-7" transform="translate(-47.66 -36.88)"/><path d="M148.9,105.66s-2.22.14-2.59,0.69-0.3,5.17-.27,5.32a2,2,0,0,0,1,0v-4s0.08-.73.33-0.48,0.11,11.48.11,11.48h0.9l0.66-6v-7" transform="translate(-47.66 -36.88)"/><circle cx="94.48" cy="67.29" r="1.29"/><path d="M142.09,105.66s2.21,0.14,2.58.69,0.31,5.17.28,5.32a2,2,0,0,1-1,0v-4s-0.09-.73-0.34-0.48-0.12,11.48-.12,11.48h-0.86l-0.68-6v-7" transform="translate(-47.66 -36.88)"/><path d="M141.9,105.66s-2.22.14-2.59,0.69-0.3,5.17-.27,5.32a2,2,0,0,0,1,0v-4s0.08-.73.33-0.48,0.11,11.48.11,11.48h0.9l0.66-6v-7" transform="translate(-47.66 -36.88)"/><circle cx="86.48" cy="67.29" r="1.29"/><path d="M134.09,105.66s2.21,0.14,2.58.69,0.31,5.17.28,5.32a2,2,0,0,1-1,0v-4s-0.09-.73-0.34-0.48-0.12,11.48-.12,11.48h-0.86l-0.68-6v-7" transform="translate(-47.66 -36.88)"/><path d="M133.9,105.66s-2.22.14-2.59,0.69-0.3,5.17-.27,5.32a2,2,0,0,0,1,0v-4s0.08-.73.33-0.48,0.11,11.48.11,11.48h0.9l0.66-6v-7" transform="translate(-47.66 -36.88)"/><circle cx="79.48" cy="67.29" r="1.29"/><path d="M127.09,105.66s2.21,0.14,2.58.69,0.31,5.17.28,5.32a2,2,0,0,1-1,0v-4s-0.09-.73-0.34-0.48-0.12,11.48-.12,11.48h-0.86l-0.68-6v-7" transform="translate(-47.66 -36.88)"/><path d="M126.9,105.66s-2.22.14-2.59,0.69-0.3,5.17-.27,5.32a2,2,0,0,0,1,0v-4s0.08-.73.33-0.48,0.11,11.48.11,11.48h0.9l0.66-6v-7" transform="translate(-47.66 -36.88)"/><circle cx="161.48" cy="67.29" r="1.29"/><path d="M209.09,105.66s2.21,0.14,2.58.69,0.31,5.17.28,5.32a2,2,0,0,1-1,0v-4s-0.09-.73-0.34-0.48-0.12,11.48-.12,11.48h-0.86l-0.68-6v-7" transform="translate(-47.66 -36.88)"/><path d="M208.9,105.66s-2.22.14-2.59,0.69-0.3,5.17-.27,5.32a2,2,0,0,0,1,0v-4s0.08-.73.33-0.48,0.11,11.48.11,11.48h0.9l0.66-6v-7" transform="translate(-47.66 -36.88)"/><circle cx="154.48" cy="67.29" r="1.29"/><path d="M202.09,105.66s2.21,0.14,2.58.69,0.31,5.17.28,5.32a2,2,0,0,1-1,0v-4s-0.09-.73-0.34-0.48-0.12,11.48-.12,11.48h-0.86l-0.68-6v-7" transform="translate(-47.66 -36.88)"/><path d="M201.9,105.66s-2.22.14-2.59,0.69-0.3,5.17-.27,5.32a2,2,0,0,0,1,0v-4s0.08-.73.33-0.48,0.11,11.48.11,11.48h0.9l0.66-6v-7" transform="translate(-47.66 -36.88)"/><circle cx="146.48" cy="67.29" r="1.29"/><path d="M194.09,105.66s2.21,0.14,2.58.69,0.31,5.17.28,5.32a2,2,0,0,1-1,0v-4s-0.09-.73-0.34-0.48-0.12,11.48-.12,11.48h-0.86l-0.68-6v-7" transform="translate(-47.66 -36.88)"/><path d="M193.9,105.66s-2.22.14-2.59,0.69-0.3,5.17-.27,5.32a2,2,0,0,0,1,0v-4s0.08-.73.33-0.48,0.11,11.48.11,11.48h0.9l0.66-6v-7" transform="translate(-47.66 -36.88)"/><circle cx="139.48" cy="67.29" r="1.29"/><path d="M187.09,105.66s2.21,0.14,2.58.69,0.31,5.17.28,5.32a2,2,0,0,1-1,0v-4s-0.09-.73-0.34-0.48-0.12,11.48-.12,11.48h-0.86l-0.68-6v-7" transform="translate(-47.66 -36.88)"/><path d="M186.9,105.66s-2.22.14-2.59,0.69-0.3,5.17-.27,5.32a2,2,0,0,0,1,0v-4s0.08-.73.33-0.48,0.11,11.48.11,11.48h0.9l0.66-6v-7" transform="translate(-47.66 -36.88)"/><circle cx="131.48" cy="67.29" r="1.29"/><path d="M179.09,105.66s2.21,0.14,2.58.69,0.31,5.17.28,5.32a2,2,0,0,1-1,0v-4s-0.09-.73-0.34-0.48-0.12,11.48-.12,11.48h-0.86l-0.68-6v-7" transform="translate(-47.66 -36.88)"/><path d="M178.9,105.66s-2.22.14-2.59,0.69-0.3,5.17-.27,5.32a2,2,0,0,0,1,0v-4s0.08-.73.33-0.48,0.11,11.48.11,11.48h0.9l0.66-6v-7" transform="translate(-47.66 -36.88)"/><circle cx="124.48" cy="67.29" r="1.29"/><path d="M172.09,105.66s2.21,0.14,2.58.69,0.31,5.17.28,5.32a2,2,0,0,1-1,0v-4s-0.09-.73-0.34-0.48-0.12,11.48-.12,11.48h-0.86l-0.68-6v-7" transform="translate(-47.66 -36.88)"/><path d="M171.9,105.66s-2.22.14-2.59,0.69-0.3,5.17-.27,5.32a2,2,0,0,0,1,0v-4s0.08-.73.33-0.48,0.11,11.48.11,11.48h0.9l0.66-6v-7" transform="translate(-47.66 -36.88)"/><circle cx="206.48" cy="67.29" r="1.29"/><path d="M254.09,105.66s2.21,0.14,2.58.69,0.31,5.17.28,5.32a2,2,0,0,1-1,0v-4s-0.09-.73-0.34-0.48-0.12,11.48-.12,11.48h-0.86l-0.68-6v-7" transform="translate(-47.66 -36.88)"/><path d="M253.9,105.66s-2.22.14-2.59,0.69-0.3,5.17-.27,5.32a2,2,0,0,0,1,0v-4s0.08-.73.33-0.48,0.11,11.48.11,11.48h0.9l0.66-6v-7" transform="translate(-47.66 -36.88)"/><circle cx="199.48" cy="67.29" r="1.29"/><path d="M247.09,105.66s2.21,0.14,2.58.69,0.31,5.17.28,5.32a2,2,0,0,1-1,0v-4s-0.09-.73-0.34-0.48-0.12,11.48-.12,11.48h-0.86l-0.68-6v-7" transform="translate(-47.66 -36.88)"/><path d="M246.9,105.66s-2.22.14-2.59,0.69-0.3,5.17-.27,5.32a2,2,0,0,0,1,0v-4s0.08-.73.33-0.48,0.11,11.48.11,11.48h0.9l0.66-6v-7" transform="translate(-47.66 -36.88)"/><circle cx="191.48" cy="67.29" r="1.29"/><path d="M239.09,105.66s2.21,0.14,2.58.69,0.31,5.17.28,5.32a2,2,0,0,1-1,0v-4s-0.09-.73-0.34-0.48-0.12,11.48-.12,11.48h-0.86l-0.68-6v-7" transform="translate(-47.66 -36.88)"/><path d="M238.9,105.66s-2.22.14-2.59,0.69-0.3,5.17-.27,5.32a2,2,0,0,0,1,0v-4s0.08-.73.33-0.48,0.11,11.48.11,11.48h0.9l0.66-6v-7" transform="translate(-47.66 -36.88)"/><circle cx="184.48" cy="67.29" r="1.29"/><path d="M232.09,105.66s2.21,0.14,2.58.69,0.31,5.17.28,5.32a2,2,0,0,1-1,0v-4s-0.09-.73-0.34-0.48-0.12,11.48-.12,11.48h-0.86l-0.68-6v-7" transform="translate(-47.66 -36.88)"/><path d="M231.9,105.66s-2.22.14-2.59,0.69-0.3,5.17-.27,5.32a2,2,0,0,0,1,0v-4s0.08-.73.33-0.48,0.11,11.48.11,11.48h0.9l0.66-6v-7" transform="translate(-47.66 -36.88)"/><circle cx="176.48" cy="67.29" r="1.29"/><path d="M224.09,105.66s2.21,0.14,2.58.69,0.31,5.17.28,5.32a2,2,0,0,1-1,0v-4s-0.09-.73-0.34-0.48-0.12,11.48-.12,11.48h-0.86l-0.68-6v-7" transform="translate(-47.66 -36.88)"/><path d="M223.9,105.66s-2.22.14-2.59,0.69-0.3,5.17-.27,5.32a2,2,0,0,0,1,0v-4s0.08-.73.33-0.48,0.11,11.48.11,11.48h0.9l0.66-6v-7" transform="translate(-47.66 -36.88)"/><circle cx="169.48" cy="67.29" r="1.29"/><path d="M217.09,105.66s2.21,0.14,2.58.69,0.31,5.17.28,5.32a2,2,0,0,1-1,0v-4s-0.09-.73-0.34-0.48-0.12,11.48-.12,11.48h-0.86l-0.68-6v-7" transform="translate(-47.66 -36.88)"/><path d="M216.9,105.66s-2.22.14-2.59,0.69-0.3,5.17-.27,5.32a2,2,0,0,0,1,0v-4s0.08-.73.33-0.48,0.11,11.48.11,11.48h0.9l0.66-6v-7" transform="translate(-47.66 -36.88)"/><circle cx="71.48" cy="1.29" r="1.29"/><path d="M119.09,39.66s2.21,0.14,2.58.69,0.31,5.17.28,5.32a2,2,0,0,1-1,0v-4s-0.09-.73-0.34-0.48-0.12,11.48-.12,11.48h-0.86l-0.68-6v-7" transform="translate(-47.66 -36.88)"/><path d="M118.9,39.66s-2.22.14-2.59,0.69-0.3,5.17-.27,5.32a2,2,0,0,0,1,0v-4s0.08-.73.33-0.48,0.11,11.48.11,11.48h0.9l0.66-6v-7" transform="translate(-47.66 -36.88)"/><circle cx="64.48" cy="1.29" r="1.29"/><path d="M112.09,39.66s2.21,0.14,2.58.69,0.31,5.17.28,5.32a2,2,0,0,1-1,0v-4s-0.09-.73-0.34-0.48-0.12,11.48-.12,11.48h-0.86l-0.68-6v-7" transform="translate(-47.66 -36.88)"/><path d="M111.9,39.66s-2.22.14-2.59,0.69-0.3,5.17-.27,5.32a2,2,0,0,0,1,0v-4s0.08-.73.33-0.48,0.11,11.48.11,11.48h0.9l0.66-6v-7" transform="translate(-47.66 -36.88)"/><circle cx="56.48" cy="1.29" r="1.29"/><path d="M104.09,39.66s2.21,0.14,2.58.69,0.31,5.17.28,5.32a2,2,0,0,1-1,0v-4s-0.09-.73-0.34-0.48-0.12,11.48-.12,11.48h-0.86l-0.68-6v-7" transform="translate(-47.66 -36.88)"/><path d="M103.9,39.66s-2.22.14-2.59,0.69-0.3,5.17-.27,5.32a2,2,0,0,0,1,0v-4s0.08-.73.33-0.48,0.11,11.48.11,11.48h0.9l0.66-6v-7" transform="translate(-47.66 -36.88)"/><circle cx="49.48" cy="1.29" r="1.29"/><path d="M97.09,39.66s2.21,0.14,2.58.69,0.31,5.17.28,5.32a2,2,0,0,1-1,0v-4s-0.09-.73-0.34-0.48S98.54,52.6,98.54,52.6H97.68L97,46.6v-7" transform="translate(-47.66 -36.88)"/><path d="M96.9,39.66s-2.22.14-2.59,0.69S94,45.52,94,45.67a2,2,0,0,0,1,0v-4s0.08-.73.33-0.48,0.11,11.48.11,11.48h0.9l0.66-6v-7" transform="translate(-47.66 -36.88)"/><circle cx="41.48" cy="1.29" r="1.29"/><path d="M89.09,39.66s2.21,0.14,2.58.69S92,45.52,92,45.67a2,2,0,0,1-1,0v-4s-0.09-.73-0.34-0.48S90.54,52.6,90.54,52.6H89.68L89,46.6v-7" transform="translate(-47.66 -36.88)"/><path d="M88.9,39.66s-2.22.14-2.59,0.69S86,45.52,86,45.67a2,2,0,0,0,1,0v-4s0.08-.73.33-0.48,0.11,11.48.11,11.48h0.9l0.66-6v-7" transform="translate(-47.66 -36.88)"/><circle cx="34.48" cy="1.29" r="1.29"/><path d="M82.09,39.66s2.21,0.14,2.58.69S85,45.52,85,45.67a2,2,0,0,1-1,0v-4s-0.09-.73-0.34-0.48S83.54,52.6,83.54,52.6H82.68L82,46.6v-7" transform="translate(-47.66 -36.88)"/><path d="M81.9,39.66s-2.22.14-2.59,0.69S79,45.52,79,45.67a2,2,0,0,0,1,0v-4s0.08-.73.33-0.48,0.11,11.48.11,11.48h0.9l0.66-6v-7" transform="translate(-47.66 -36.88)"/><circle cx="116.48" cy="1.29" r="1.29"/><path d="M164.09,39.66s2.21,0.14,2.58.69,0.31,5.17.28,5.32a2,2,0,0,1-1,0v-4s-0.09-.73-0.34-0.48-0.12,11.48-.12,11.48h-0.86l-0.68-6v-7" transform="translate(-47.66 -36.88)"/><path d="M163.9,39.66s-2.22.14-2.59,0.69-0.3,5.17-.27,5.32a2,2,0,0,0,1,0v-4s0.08-.73.33-0.48,0.11,11.48.11,11.48h0.9l0.66-6v-7" transform="translate(-47.66 -36.88)"/><circle cx="109.48" cy="1.29" r="1.29"/><path d="M157.09,39.66s2.21,0.14,2.58.69,0.31,5.17.28,5.32a2,2,0,0,1-1,0v-4s-0.09-.73-0.34-0.48-0.12,11.48-.12,11.48h-0.86l-0.68-6v-7" transform="translate(-47.66 -36.88)"/><path d="M156.9,39.66s-2.22.14-2.59,0.69-0.3,5.17-.27,5.32a2,2,0,0,0,1,0v-4s0.08-.73.33-0.48,0.11,11.48.11,11.48h0.9l0.66-6v-7" transform="translate(-47.66 -36.88)"/><circle cx="101.48" cy="1.29" r="1.29"/><path d="M149.09,39.66s2.21,0.14,2.58.69,0.31,5.17.28,5.32a2,2,0,0,1-1,0v-4s-0.09-.73-0.34-0.48-0.12,11.48-.12,11.48h-0.86l-0.68-6v-7" transform="translate(-47.66 -36.88)"/><path d="M148.9,39.66s-2.22.14-2.59,0.69-0.3,5.17-.27,5.32a2,2,0,0,0,1,0v-4s0.08-.73.33-0.48,0.11,11.48.11,11.48h0.9l0.66-6v-7" transform="translate(-47.66 -36.88)"/><circle cx="94.48" cy="1.29" r="1.29"/><path d="M142.09,39.66s2.21,0.14,2.58.69,0.31,5.17.28,5.32a2,2,0,0,1-1,0v-4s-0.09-.73-0.34-0.48-0.12,11.48-.12,11.48h-0.86l-0.68-6v-7" transform="translate(-47.66 -36.88)"/><path d="M141.9,39.66s-2.22.14-2.59,0.69-0.3,5.17-.27,5.32a2,2,0,0,0,1,0v-4s0.08-.73.33-0.48,0.11,11.48.11,11.48h0.9l0.66-6v-7" transform="translate(-47.66 -36.88)"/><circle cx="86.48" cy="1.29" r="1.29"/><path d="M134.09,39.66s2.21,0.14,2.58.69,0.31,5.17.28,5.32a2,2,0,0,1-1,0v-4s-0.09-.73-0.34-0.48-0.12,11.48-.12,11.48h-0.86l-0.68-6v-7" transform="translate(-47.66 -36.88)"/><path d="M133.9,39.66s-2.22.14-2.59,0.69-0.3,5.17-.27,5.32a2,2,0,0,0,1,0v-4s0.08-.73.33-0.48,0.11,11.48.11,11.48h0.9l0.66-6v-7" transform="translate(-47.66 -36.88)"/><circle cx="79.48" cy="1.29" r="1.29"/><path d="M127.09,39.66s2.21,0.14,2.58.69,0.31,5.17.28,5.32a2,2,0,0,1-1,0v-4s-0.09-.73-0.34-0.48-0.12,11.48-.12,11.48h-0.86l-0.68-6v-7" transform="translate(-47.66 -36.88)"/><path d="M126.9,39.66s-2.22.14-2.59,0.69-0.3,5.17-.27,5.32a2,2,0,0,0,1,0v-4s0.08-.73.33-0.48,0.11,11.48.11,11.48h0.9l0.66-6v-7" transform="translate(-47.66 -36.88)"/><circle cx="161.48" cy="1.29" r="1.29"/><path d="M209.09,39.66s2.21,0.14,2.58.69,0.31,5.17.28,5.32a2,2,0,0,1-1,0v-4s-0.09-.73-0.34-0.48-0.12,11.48-.12,11.48h-0.86l-0.68-6v-7" transform="translate(-47.66 -36.88)"/><path d="M208.9,39.66s-2.22.14-2.59,0.69-0.3,5.17-.27,5.32a2,2,0,0,0,1,0v-4s0.08-.73.33-0.48,0.11,11.48.11,11.48h0.9l0.66-6v-7" transform="translate(-47.66 -36.88)"/><circle cx="154.48" cy="1.29" r="1.29"/><path d="M202.09,39.66s2.21,0.14,2.58.69,0.31,5.17.28,5.32a2,2,0,0,1-1,0v-4s-0.09-.73-0.34-0.48-0.12,11.48-.12,11.48h-0.86l-0.68-6v-7" transform="translate(-47.66 -36.88)"/><path d="M201.9,39.66s-2.22.14-2.59,0.69-0.3,5.17-.27,5.32a2,2,0,0,0,1,0v-4s0.08-.73.33-0.48,0.11,11.48.11,11.48h0.9l0.66-6v-7" transform="translate(-47.66 -36.88)"/><circle cx="146.48" cy="1.29" r="1.29"/><path d="M194.09,39.66s2.21,0.14,2.58.69,0.31,5.17.28,5.32a2,2,0,0,1-1,0v-4s-0.09-.73-0.34-0.48-0.12,11.48-.12,11.48h-0.86l-0.68-6v-7" transform="translate(-47.66 -36.88)"/><path d="M193.9,39.66s-2.22.14-2.59,0.69-0.3,5.17-.27,5.32a2,2,0,0,0,1,0v-4s0.08-.73.33-0.48,0.11,11.48.11,11.48h0.9l0.66-6v-7" transform="translate(-47.66 -36.88)"/><circle cx="139.48" cy="1.29" r="1.29"/><path d="M187.09,39.66s2.21,0.14,2.58.69,0.31,5.17.28,5.32a2,2,0,0,1-1,0v-4s-0.09-.73-0.34-0.48-0.12,11.48-.12,11.48h-0.86l-0.68-6v-7" transform="translate(-47.66 -36.88)"/><path d="M186.9,39.66s-2.22.14-2.59,0.69-0.3,5.17-.27,5.32a2,2,0,0,0,1,0v-4s0.08-.73.33-0.48,0.11,11.48.11,11.48h0.9l0.66-6v-7" transform="translate(-47.66 -36.88)"/><circle cx="131.48" cy="1.29" r="1.29"/><path d="M179.09,39.66s2.21,0.14,2.58.69,0.31,5.17.28,5.32a2,2,0,0,1-1,0v-4s-0.09-.73-0.34-0.48-0.12,11.48-.12,11.48h-0.86l-0.68-6v-7" transform="translate(-47.66 -36.88)"/><path d="M178.9,39.66s-2.22.14-2.59,0.69-0.3,5.17-.27,5.32a2,2,0,0,0,1,0v-4s0.08-.73.33-0.48,0.11,11.48.11,11.48h0.9l0.66-6v-7" transform="translate(-47.66 -36.88)"/><circle cx="124.48" cy="1.29" r="1.29"/><path d="M172.09,39.66s2.21,0.14,2.58.69,0.31,5.17.28,5.32a2,2,0,0,1-1,0v-4s-0.09-.73-0.34-0.48-0.12,11.48-.12,11.48h-0.86l-0.68-6v-7" transform="translate(-47.66 -36.88)"/><path d="M171.9,39.66s-2.22.14-2.59,0.69-0.3,5.17-.27,5.32a2,2,0,0,0,1,0v-4s0.08-.73.33-0.48,0.11,11.48.11,11.48h0.9l0.66-6v-7" transform="translate(-47.66 -36.88)"/><circle cx="206.48" cy="1.29" r="1.29"/><path d="M254.09,39.66s2.21,0.14,2.58.69,0.31,5.17.28,5.32a2,2,0,0,1-1,0v-4s-0.09-.73-0.34-0.48-0.12,11.48-.12,11.48h-0.86l-0.68-6v-7" transform="translate(-47.66 -36.88)"/><path d="M253.9,39.66s-2.22.14-2.59,0.69-0.3,5.17-.27,5.32a2,2,0,0,0,1,0v-4s0.08-.73.33-0.48,0.11,11.48.11,11.48h0.9l0.66-6v-7" transform="translate(-47.66 -36.88)"/><circle cx="199.48" cy="1.29" r="1.29"/><path d="M247.09,39.66s2.21,0.14,2.58.69,0.31,5.17.28,5.32a2,2,0,0,1-1,0v-4s-0.09-.73-0.34-0.48-0.12,11.48-.12,11.48h-0.86l-0.68-6v-7" transform="translate(-47.66 -36.88)"/><path d="M246.9,39.66s-2.22.14-2.59,0.69-0.3,5.17-.27,5.32a2,2,0,0,0,1,0v-4s0.08-.73.33-0.48,0.11,11.48.11,11.48h0.9l0.66-6v-7" transform="translate(-47.66 -36.88)"/><circle cx="221.48" cy="1.29" r="1.29"/><path d="M269.09,39.66s2.21,0.14,2.58.69,0.31,5.17.28,5.32a2,2,0,0,1-1,0v-4s-0.09-.73-0.34-0.48-0.12,11.48-.12,11.48h-0.86l-0.68-6v-7" transform="translate(-47.66 -36.88)"/><path d="M268.9,39.66s-2.22.14-2.59,0.69-0.3,5.17-.27,5.32a2,2,0,0,0,1,0v-4s0.08-.73.33-0.48,0.11,11.48.11,11.48h0.9l0.66-6v-7" transform="translate(-47.66 -36.88)"/><circle cx="214.48" cy="1.29" r="1.29"/><path d="M262.09,39.66s2.21,0.14,2.58.69,0.31,5.17.28,5.32a2,2,0,0,1-1,0v-4s-0.09-.73-0.34-0.48-0.12,11.48-.12,11.48h-0.86l-0.68-6v-7" transform="translate(-47.66 -36.88)"/><path d="M261.9,39.66s-2.22.14-2.59,0.69-0.3,5.17-.27,5.32a2,2,0,0,0,1,0v-4s0.08-.73.33-0.48,0.11,11.48.11,11.48h0.9l0.66-6v-7" transform="translate(-47.66 -36.88)"/><circle cx="191.48" cy="1.29" r="1.29"/><path d="M239.09,39.66s2.21,0.14,2.58.69,0.31,5.17.28,5.32a2,2,0,0,1-1,0v-4s-0.09-.73-0.34-0.48-0.12,11.48-.12,11.48h-0.86l-0.68-6v-7" transform="translate(-47.66 -36.88)"/><path d="M238.9,39.66s-2.22.14-2.59,0.69-0.3,5.17-.27,5.32a2,2,0,0,0,1,0v-4s0.08-.73.33-0.48,0.11,11.48.11,11.48h0.9l0.66-6v-7" transform="translate(-47.66 -36.88)"/><circle cx="184.48" cy="1.29" r="1.29"/><path d="M232.09,39.66s2.21,0.14,2.58.69,0.31,5.17.28,5.32a2,2,0,0,1-1,0v-4s-0.09-.73-0.34-0.48-0.12,11.48-.12,11.48h-0.86l-0.68-6v-7" transform="translate(-47.66 -36.88)"/><path d="M231.9,39.66s-2.22.14-2.59,0.69-0.3,5.17-.27,5.32a2,2,0,0,0,1,0v-4s0.08-.73.33-0.48,0.11,11.48.11,11.48h0.9l0.66-6v-7" transform="translate(-47.66 -36.88)"/><circle cx="176.48" cy="1.29" r="1.29"/><path d="M224.09,39.66s2.21,0.14,2.58.69,0.31,5.17.28,5.32a2,2,0,0,1-1,0v-4s-0.09-.73-0.34-0.48-0.12,11.48-.12,11.48h-0.86l-0.68-6v-7" transform="translate(-47.66 -36.88)"/><path d="M223.9,39.66s-2.22.14-2.59,0.69-0.3,5.17-.27,5.32a2,2,0,0,0,1,0v-4s0.08-.73.33-0.48,0.11,11.48.11,11.48h0.9l0.66-6v-7" transform="translate(-47.66 -36.88)"/><circle cx="169.48" cy="1.29" r="1.29"/><path d="M217.09,39.66s2.21,0.14,2.58.69,0.31,5.17.28,5.32a2,2,0,0,1-1,0v-4s-0.09-.73-0.34-0.48-0.12,11.48-.12,11.48h-0.86l-0.68-6v-7" transform="translate(-47.66 -36.88)"/><path d="M216.9,39.66s-2.22.14-2.59,0.69-0.3,5.17-.27,5.32a2,2,0,0,0,1,0v-4s0.08-.73.33-0.48,0.11,11.48.11,11.48h0.9l0.66-6v-7" transform="translate(-47.66 -36.88)"/><circle cx="71.48" cy="21.29" r="1.29"/><path d="M119.09,59.66s2.21,0.14,2.58.69,0.31,5.17.28,5.32a2,2,0,0,1-1,0v-4s-0.09-.73-0.34-0.48-0.12,11.48-.12,11.48h-0.86l-0.68-6v-7" transform="translate(-47.66 -36.88)"/><path d="M118.9,59.66s-2.22.14-2.59,0.69-0.3,5.17-.27,5.32a2,2,0,0,0,1,0v-4s0.08-.73.33-0.48,0.11,11.48.11,11.48h0.9l0.66-6v-7" transform="translate(-47.66 -36.88)"/><circle cx="64.48" cy="21.29" r="1.29"/><path d="M112.09,59.66s2.21,0.14,2.58.69,0.31,5.17.28,5.32a2,2,0,0,1-1,0v-4s-0.09-.73-0.34-0.48-0.12,11.48-.12,11.48h-0.86l-0.68-6v-7" transform="translate(-47.66 -36.88)"/><path d="M111.9,59.66s-2.22.14-2.59,0.69-0.3,5.17-.27,5.32a2,2,0,0,0,1,0v-4s0.08-.73.33-0.48,0.11,11.48.11,11.48h0.9l0.66-6v-7" transform="translate(-47.66 -36.88)"/><circle cx="56.48" cy="21.29" r="1.29"/><path d="M104.09,59.66s2.21,0.14,2.58.69,0.31,5.17.28,5.32a2,2,0,0,1-1,0v-4s-0.09-.73-0.34-0.48-0.12,11.48-.12,11.48h-0.86l-0.68-6v-7" transform="translate(-47.66 -36.88)"/><path d="M103.9,59.66s-2.22.14-2.59,0.69-0.3,5.17-.27,5.32a2,2,0,0,0,1,0v-4s0.08-.73.33-0.48,0.11,11.48.11,11.48h0.9l0.66-6v-7" transform="translate(-47.66 -36.88)"/><circle cx="49.48" cy="21.29" r="1.29"/><path d="M97.09,59.66s2.21,0.14,2.58.69,0.31,5.17.28,5.32a2,2,0,0,1-1,0v-4s-0.09-.73-0.34-0.48S98.54,72.6,98.54,72.6H97.68L97,66.6v-7" transform="translate(-47.66 -36.88)"/><path d="M96.9,59.66s-2.22.14-2.59,0.69S94,65.52,94,65.67a2,2,0,0,0,1,0v-4s0.08-.73.33-0.48,0.11,11.48.11,11.48h0.9l0.66-6v-7" transform="translate(-47.66 -36.88)"/><circle cx="41.48" cy="21.29" r="1.29"/><path d="M89.09,59.66s2.21,0.14,2.58.69S92,65.52,92,65.67a2,2,0,0,1-1,0v-4s-0.09-.73-0.34-0.48S90.54,72.6,90.54,72.6H89.68L89,66.6v-7" transform="translate(-47.66 -36.88)"/><path d="M88.9,59.66s-2.22.14-2.59,0.69S86,65.52,86,65.67a2,2,0,0,0,1,0v-4s0.08-.73.33-0.48,0.11,11.48.11,11.48h0.9l0.66-6v-7" transform="translate(-47.66 -36.88)"/><circle cx="34.48" cy="21.29" r="1.29"/><path d="M82.09,59.66s2.21,0.14,2.58.69S85,65.52,85,65.67a2,2,0,0,1-1,0v-4s-0.09-.73-0.34-0.48S83.54,72.6,83.54,72.6H82.68L82,66.6v-7" transform="translate(-47.66 -36.88)"/><path d="M81.9,59.66s-2.22.14-2.59,0.69S79,65.52,79,65.67a2,2,0,0,0,1,0v-4s0.08-.73.33-0.48,0.11,11.48.11,11.48h0.9l0.66-6v-7" transform="translate(-47.66 -36.88)"/><circle cx="116.48" cy="21.29" r="1.29"/><path d="M164.09,59.66s2.21,0.14,2.58.69,0.31,5.17.28,5.32a2,2,0,0,1-1,0v-4s-0.09-.73-0.34-0.48-0.12,11.48-.12,11.48h-0.86l-0.68-6v-7" transform="translate(-47.66 -36.88)"/><path d="M163.9,59.66s-2.22.14-2.59,0.69-0.3,5.17-.27,5.32a2,2,0,0,0,1,0v-4s0.08-.73.33-0.48,0.11,11.48.11,11.48h0.9l0.66-6v-7" transform="translate(-47.66 -36.88)"/><circle cx="109.48" cy="21.29" r="1.29"/><path d="M157.09,59.66s2.21,0.14,2.58.69,0.31,5.17.28,5.32a2,2,0,0,1-1,0v-4s-0.09-.73-0.34-0.48-0.12,11.48-.12,11.48h-0.86l-0.68-6v-7" transform="translate(-47.66 -36.88)"/><path d="M156.9,59.66s-2.22.14-2.59,0.69-0.3,5.17-.27,5.32a2,2,0,0,0,1,0v-4s0.08-.73.33-0.48,0.11,11.48.11,11.48h0.9l0.66-6v-7" transform="translate(-47.66 -36.88)"/><circle cx="101.48" cy="21.29" r="1.29"/><path d="M149.09,59.66s2.21,0.14,2.58.69,0.31,5.17.28,5.32a2,2,0,0,1-1,0v-4s-0.09-.73-0.34-0.48-0.12,11.48-.12,11.48h-0.86l-0.68-6v-7" transform="translate(-47.66 -36.88)"/><path d="M148.9,59.66s-2.22.14-2.59,0.69-0.3,5.17-.27,5.32a2,2,0,0,0,1,0v-4s0.08-.73.33-0.48,0.11,11.48.11,11.48h0.9l0.66-6v-7" transform="translate(-47.66 -36.88)"/><circle cx="94.48" cy="21.29" r="1.29"/><path d="M142.09,59.66s2.21,0.14,2.58.69,0.31,5.17.28,5.32a2,2,0,0,1-1,0v-4s-0.09-.73-0.34-0.48-0.12,11.48-.12,11.48h-0.86l-0.68-6v-7" transform="translate(-47.66 -36.88)"/><path d="M141.9,59.66s-2.22.14-2.59,0.69-0.3,5.17-.27,5.32a2,2,0,0,0,1,0v-4s0.08-.73.33-0.48,0.11,11.48.11,11.48h0.9l0.66-6v-7" transform="translate(-47.66 -36.88)"/><circle cx="86.48" cy="21.29" r="1.29"/><path d="M134.09,59.66s2.21,0.14,2.58.69,0.31,5.17.28,5.32a2,2,0,0,1-1,0v-4s-0.09-.73-0.34-0.48-0.12,11.48-.12,11.48h-0.86l-0.68-6v-7" transform="translate(-47.66 -36.88)"/><path d="M133.9,59.66s-2.22.14-2.59,0.69-0.3,5.17-.27,5.32a2,2,0,0,0,1,0v-4s0.08-.73.33-0.48,0.11,11.48.11,11.48h0.9l0.66-6v-7" transform="translate(-47.66 -36.88)"/><circle cx="79.48" cy="21.29" r="1.29"/><path d="M127.09,59.66s2.21,0.14,2.58.69,0.31,5.17.28,5.32a2,2,0,0,1-1,0v-4s-0.09-.73-0.34-0.48-0.12,11.48-.12,11.48h-0.86l-0.68-6v-7" transform="translate(-47.66 -36.88)"/><path d="M126.9,59.66s-2.22.14-2.59,0.69-0.3,5.17-.27,5.32a2,2,0,0,0,1,0v-4s0.08-.73.33-0.48,0.11,11.48.11,11.48h0.9l0.66-6v-7" transform="translate(-47.66 -36.88)"/><circle cx="146.48" cy="21.29" r="1.29"/><path d="M194.09,59.66s2.21,0.14,2.58.69,0.31,5.17.28,5.32a2,2,0,0,1-1,0v-4s-0.09-.73-0.34-0.48-0.12,11.48-.12,11.48h-0.86l-0.68-6v-7" transform="translate(-47.66 -36.88)"/><path d="M193.9,59.66s-2.22.14-2.59,0.69-0.3,5.17-.27,5.32a2,2,0,0,0,1,0v-4s0.08-.73.33-0.48,0.11,11.48.11,11.48h0.9l0.66-6v-7" transform="translate(-47.66 -36.88)"/><circle cx="139.48" cy="21.29" r="1.29"/><path d="M187.09,59.66s2.21,0.14,2.58.69,0.31,5.17.28,5.32a2,2,0,0,1-1,0v-4s-0.09-.73-0.34-0.48-0.12,11.48-.12,11.48h-0.86l-0.68-6v-7" transform="translate(-47.66 -36.88)"/><path d="M186.9,59.66s-2.22.14-2.59,0.69-0.3,5.17-.27,5.32a2,2,0,0,0,1,0v-4s0.08-.73.33-0.48,0.11,11.48.11,11.48h0.9l0.66-6v-7" transform="translate(-47.66 -36.88)"/><circle cx="131.48" cy="21.29" r="1.29"/><path d="M179.09,59.66s2.21,0.14,2.58.69,0.31,5.17.28,5.32a2,2,0,0,1-1,0v-4s-0.09-.73-0.34-0.48-0.12,11.48-.12,11.48h-0.86l-0.68-6v-7" transform="translate(-47.66 -36.88)"/><path d="M178.9,59.66s-2.22.14-2.59,0.69-0.3,5.17-.27,5.32a2,2,0,0,0,1,0v-4s0.08-.73.33-0.48,0.11,11.48.11,11.48h0.9l0.66-6v-7" transform="translate(-47.66 -36.88)"/><circle cx="124.48" cy="21.29" r="1.29"/><path d="M172.09,59.66s2.21,0.14,2.58.69,0.31,5.17.28,5.32a2,2,0,0,1-1,0v-4s-0.09-.73-0.34-0.48-0.12,11.48-.12,11.48h-0.86l-0.68-6v-7" transform="translate(-47.66 -36.88)"/><path d="M171.9,59.66s-2.22.14-2.59,0.69-0.3,5.17-.27,5.32a2,2,0,0,0,1,0v-4s0.08-.73.33-0.48,0.11,11.48.11,11.48h0.9l0.66-6v-7" transform="translate(-47.66 -36.88)"/><path d="M47.68,45.32v-0.1c0-1.3.66-2.43,2.34-3.67,1.16-.86,1.51-1.16,1.51-1.91a1,1,0,0,0-1.13-1.19,1.23,1.23,0,0,0-1.29,1.27H47.66a2.54,2.54,0,0,1,2.75-2.45c1.94,0,2.63,1.19,2.63,2.34s-0.49,1.69-1.94,2.75a4.23,4.23,0,0,0-1.63,1.69h3.87l-0.19,1.26H47.68Z" transform="translate(-47.66 -36.88)"/><path d="M60.18,41.33c0,2.09-.65,4.14-2.94,4.14s-2.94-2-2.94-4.09,0.74-4.09,3-4.09S60.18,39.16,60.18,41.33Zm-4.33,0c0,1.46.19,2.89,1.4,2.89s1.38-1.34,1.38-2.93-0.22-2.84-1.36-2.84S55.85,39.65,55.85,41.36Z" transform="translate(-47.66 -36.88)"/><path d="M62.79,45.32V39.17a5.18,5.18,0,0,1-1.5.46V38.5a4,4,0,0,0,1.94-1.09H64.3v7.92H62.79Z" transform="translate(-47.66 -36.88)"/><path d="M70.08,39.28A1,1,0,0,0,69,38.44c-1.15,0-1.48,1.08-1.52,2.35a2.15,2.15,0,0,1,1.86-.86,2.42,2.42,0,0,1,2.46,2.63,2.71,2.71,0,0,1-2.82,2.91c-2.25,0-3-1.76-3-4s0.72-4.19,3.07-4.19a2.26,2.26,0,0,1,2.49,2H70.08Zm0.18,3.39a1.32,1.32,0,0,0-1.34-1.56,1.31,1.31,0,0,0-1.37,1.51,1.47,1.47,0,0,0,1.36,1.64A1.38,1.38,0,0,0,70.26,42.67Z" transform="translate(-47.66 -36.88)"/><path d="M47.68,110.94v-0.1c0-1.3.66-2.43,2.34-3.67,1.16-.86,1.51-1.16,1.51-1.91a1,1,0,0,0-1.13-1.19,1.23,1.23,0,0,0-1.29,1.27H47.66a2.54,2.54,0,0,1,2.75-2.45c1.94,0,2.63,1.19,2.63,2.34s-0.49,1.69-1.94,2.75a4.23,4.23,0,0,0-1.63,1.69h3.87l-0.19,1.26H47.68Z" transform="translate(-47.66 -36.88)"/><path d="M60.18,106.94c0,2.09-.65,4.14-2.94,4.14s-2.94-2-2.94-4.09,0.74-4.09,3-4.09S60.18,104.77,60.18,106.94Zm-4.33,0c0,1.46.19,2.89,1.4,2.89s1.38-1.34,1.38-2.93-0.22-2.84-1.36-2.84S55.85,105.26,55.85,107Z" transform="translate(-47.66 -36.88)"/><path d="M62.79,110.94v-6.15a5.18,5.18,0,0,1-1.5.46v-1.13A4,4,0,0,0,63.23,103H64.3v7.92H62.79Z" transform="translate(-47.66 -36.88)"/><path d="M71.23,104.28H68c-0.06.49-.22,1.4-0.28,1.76a2.09,2.09,0,0,1,1.5-.5,2.37,2.37,0,0,1,2.41,2.63,2.67,2.67,0,0,1-2.88,2.91A2.56,2.56,0,0,1,66,108.9h1.5a1.27,1.27,0,0,0,1.34,1,1.38,1.38,0,0,0,1.34-1.63,1.29,1.29,0,0,0-1.32-1.55,1.26,1.26,0,0,0-1.36.88l-1.35-.19c0.22-1,.55-3.32.67-4.38h4.64Z" transform="translate(-47.66 -36.88)"/><path d="M47.68,171.17v-0.1c0-1.3.66-2.43,2.34-3.67,1.16-.86,1.51-1.16,1.51-1.91a1,1,0,0,0-1.13-1.19,1.23,1.23,0,0,0-1.29,1.27H47.66a2.54,2.54,0,0,1,2.75-2.45c1.94,0,2.63,1.19,2.63,2.34s-0.49,1.69-1.94,2.75a4.23,4.23,0,0,0-1.63,1.69h3.87l-0.19,1.26H47.68Z" transform="translate(-47.66 -36.88)"/><path d="M60.18,167.17c0,2.09-.65,4.14-2.94,4.14s-2.94-2-2.94-4.09,0.74-4.09,3-4.09S60.18,165,60.18,167.17Zm-4.33,0c0,1.46.19,2.89,1.4,2.89s1.38-1.34,1.38-2.93-0.22-2.84-1.36-2.84S55.85,165.49,55.85,167.21Z" transform="translate(-47.66 -36.88)"/><path d="M62.79,171.17V165a5.18,5.18,0,0,1-1.5.46v-1.13a4,4,0,0,0,1.94-1.09H64.3v7.92H62.79Z" transform="translate(-47.66 -36.88)"/><path d="M69.48,171.17v-1.86H65.87V168l3.39-4.71h1.62v4.81h1l-0.14,1.22H70.88v1.86h-1.4Zm0-4.69c0-.77,0-1.36,0-1.86-0.31.65-1.51,2.35-2.29,3.47h2.25v-1.61Z" transform="translate(-47.66 -36.88)"/><path d="M47.68,229.74v-0.1c0-1.3.66-2.43,2.34-3.67,1.16-.86,1.51-1.16,1.51-1.91a1,1,0,0,0-1.13-1.19,1.23,1.23,0,0,0-1.29,1.27H47.66a2.54,2.54,0,0,1,2.75-2.45c1.94,0,2.63,1.19,2.63,2.34s-0.49,1.69-1.94,2.75a4.23,4.23,0,0,0-1.63,1.69h3.87l-0.19,1.26H47.68Z" transform="translate(-47.66 -36.88)"/><path d="M60.18,225.74c0,2.09-.65,4.14-2.94,4.14s-2.94-2-2.94-4.09,0.74-4.09,3-4.09S60.18,223.57,60.18,225.74Zm-4.33,0c0,1.46.19,2.89,1.4,2.89s1.38-1.34,1.38-2.93-0.22-2.84-1.36-2.84S55.85,224.07,55.85,225.78Z" transform="translate(-47.66 -36.88)"/><path d="M62.79,229.74v-6.15a5.18,5.18,0,0,1-1.5.46v-1.13a4,4,0,0,0,1.94-1.09H64.3v7.92H62.79Z" transform="translate(-47.66 -36.88)"/><path d="M66,223.82a2.41,2.41,0,0,1,2.67-2.12c1.76,0,2.55,1,2.55,2.11a1.65,1.65,0,0,1-1,1.62v0a1.92,1.92,0,0,1,1.32,1.94c0,1.18-.73,2.48-2.89,2.48a2.53,2.53,0,0,1-2.84-2.28h1.46a1.33,1.33,0,0,0,1.43,1.12A1.23,1.23,0,0,0,70,227.38a1.22,1.22,0,0,0-1.44-1.3H67.91v-1.16h0.58c0.88,0,1.24-.31,1.24-1a1,1,0,0,0-1.13-1,1.07,1.07,0,0,0-1.2.95H66Z" transform="translate(-47.66 -36.88)"/></svg>