<svg xmlns="http://www.w3.org/2000/svg" xmlns:xlink="http://www.w3.org/1999/xlink" viewBox="0 0 249.67 230.5"><defs><style>.a{fill:none;}.b{isolation:isolate;}.c{fill:#ffdbdb;}.d{mix-blend-mode:multiply;}.e{clip-path:url(#a);}.f{fill:#d4effc;}.g{clip-path:url(#b);}.h{clip-path:url(#c);}</style><clipPath id="a" transform="translate(0 0)"><rect class="a" x="-8" y="-6.34" width="153.59" height="143.59"/></clipPath><clipPath id="b" transform="translate(0 0)"><rect class="a" x="99.44" y="-6.5" width="153.9" height="143.9"/></clipPath><clipPath id="c" transform="translate(0 0)"><rect class="a" x="45.87" y="87.91" width="153.59" height="143.59"/></clipPath></defs><title>setup</title><g class="b"><rect class="c" width="249.67" height="230.32"/><g class="d"><g class="e"><path class="f" d="M68.8,136.25A67.8,67.8,0,1,0,1,68.45a67.8,67.8,0,0,0,67.8,67.8" transform="translate(0 0)"/></g></g><g class="d"><g class="g"><path class="f" d="M176.39,136.4a68,68,0,1,0-68-68,68,68,0,0,0,68,68" transform="translate(0 0)"/></g></g><g class="d"><g class="h"><path class="f" d="M122.67,230.5a67.8,67.8,0,1,0-67.8-67.8,67.8,67.8,0,0,0,67.8,67.8" transform="translate(0 0)"/></g></g><path d="M40.17,62h0a4,4,0,0,1,4-4h0.05a4,4,0,0,1,3.08,1.19l-1.1,1.26a2.87,2.87,0,0,0-2-.88A2.3,2.3,0,0,0,42,61.93V62h0a2.31,2.31,0,0,0,2.18,2.44h0.08a2.81,2.81,0,0,0,2-.91l1.08,1.12A4,4,0,0,1,44.16,66a3.93,3.93,0,0,1-4-3.87S40.17,62,40.17,62Z" transform="translate(0 0)"/><path d="M48.15,62h0a4.13,4.13,0,0,1,8.26,0h0a4.13,4.13,0,1,1-8.26,0h0Zm6.48,0h0a2.36,2.36,0,0,0-2.29-2.43h0a2.33,2.33,0,0,0-2.36,2.3s0,0.09,0,.13h0a2.36,2.36,0,0,0,2.26,2.46h0.1a2.33,2.33,0,0,0,2.33-2.33S54.63,62,54.63,62Z" transform="translate(0 0)"/><path d="M57.94,58.13h1.58l3.64,4.79V58.13h1.69V65.9H63.39L59.63,61v4.9H57.94V58.13Z" transform="translate(0 0)"/><path d="M68.52,59.7H66.16V58.13H72.6V59.7H70.23v6.2H68.52V59.7Z" transform="translate(0 0)"/><path d="M73.91,58.13h5.87v1.52H75.61v1.58H79.3v1.52H75.61v1.63h4.22V65.9H73.91V58.13Z" transform="translate(0 0)"/><path d="M81.35,58.13h1.58l3.64,4.79V58.13H88.3V65.9H86.81L83,61v4.9H81.35V58.13Z" transform="translate(0 0)"/><path d="M91.94,59.7H89.57V58.13H96V59.7H93.64v6.2H91.93V59.7h0Z" transform="translate(0 0)"/><path d="M72.89,155.41h3.18a2.66,2.66,0,0,1,3,2.69h0c0,1.8-1.4,2.73-3.14,2.73H74.6v2.33H72.89v-7.75ZM76,159.33a1.2,1.2,0,0,0,1.34-1.18h0A1.18,1.18,0,0,0,76.11,157l-0.19,0H74.6v2.38H76v-0.05Z" transform="translate(0 0)"/><path d="M80,159.32h0a4.13,4.13,0,1,1,8.26,0h0A4.13,4.13,0,1,1,80,159.32Zm6.48,0h0a2.36,2.36,0,0,0-2.28-2.44H84.09a2.33,2.33,0,0,0-2.33,2.33s0,0.06,0,.09h0A2.36,2.36,0,0,0,84,161.74h0.08a2.33,2.33,0,0,0,2.32-2.34S86.44,159.35,86.44,159.32Z" transform="translate(0 0)"/><path d="M89.17,162.05l1-1.21a3.57,3.57,0,0,0,2.32.94c0.7,0,1.12-.28,1.12-0.73h0c0-.43-0.27-0.66-1.57-1-1.57-.4-2.58-0.83-2.58-2.38h0a2.43,2.43,0,0,1,2.5-2.36l0.22,0a4.5,4.5,0,0,1,2.89,1l-0.89,1.29a3.65,3.65,0,0,0-2-.77,0.82,0.82,0,0,0-1,.61v0.07h0c0,0.51.33,0.68,1.68,1,1.58,0.41,2.47,1,2.47,2.33h0c0,1.54-1.18,2.41-2.85,2.41A5,5,0,0,1,89.17,162.05Z" transform="translate(0 0)"/><path d="M98.47,157H96.1v-1.58h6.44V157h-2.37v6.2H98.46V157h0Z" transform="translate(0 0)"/><path d="M103.85,155.41H107a2.66,2.66,0,0,1,3,2.69h0c0,1.8-1.4,2.73-3.14,2.73h-1.3v2.33h-1.71v-7.78Zm3.07,3.92a1.2,1.2,0,0,0,1.35-1.18h0a1.18,1.18,0,0,0-1.16-1.2l-0.23,0h-1.32v2.38h1.35v0Z" transform="translate(0 0)"/><path d="M111.3,155.41h3.55a3.1,3.1,0,0,1,2.27.79,2.44,2.44,0,0,1,.67,1.78h0a2.41,2.41,0,0,1-1.67,2.41l1.9,2.78h-2l-1.72-2.47H113v2.49H111.3v-7.78Zm3.44,3.78a1.13,1.13,0,0,0,1.31-1.1h0a1.13,1.13,0,0,0-1.13-1.13l-0.21,0H113v2.23h1.73v0Z" transform="translate(0 0)"/><path d="M119,159.32h0a4.13,4.13,0,0,1,8.26,0h0A4.13,4.13,0,0,1,119,159.32Zm6.48,0h0a2.36,2.36,0,0,0-2.28-2.44h-0.07a2.33,2.33,0,0,0-2.33,2.33s0,0.06,0,.09h0a2.36,2.36,0,0,0,2.28,2.44h0.07a2.33,2.33,0,0,0,2.32-2.34s0-.05,0-0.08h0Z" transform="translate(0 0)"/><path d="M128.74,155.41h3a3.88,3.88,0,0,1,4.12,3.62q0,0.12,0,.25h0a3.89,3.89,0,0,1-3.88,3.9h-3.25v-7.76Zm1.71,1.54v4.69h1.32a2.22,2.22,0,0,0,2.34-2.32h0A2.23,2.23,0,0,0,132,157h-1.55v0Z" transform="translate(0 0)"/><path d="M137.3,159.85v-4.44H139v4.4a1.64,1.64,0,0,0,1.68,1.92,1.61,1.61,0,0,0,1.68-1.87V155.4h1.71v4.39c0,2.35-1.32,3.51-3.41,3.51S137.3,162.14,137.3,159.85Z" transform="translate(0 0)"/><path d="M145.48,159.32h0a4,4,0,0,1,4-4h0.05a4,4,0,0,1,3.07,1.2l-1.09,1.26a2.87,2.87,0,0,0-2-.88,2.3,2.3,0,0,0-2.25,2.35s0,0,0,.07h0a2.31,2.31,0,0,0,2.18,2.44h0.07a2.81,2.81,0,0,0,2-.91l1.09,1.1a4,4,0,0,1-3.19,1.39,3.93,3.93,0,0,1-3.93-3.93S145.48,159.35,145.48,159.32Z" transform="translate(0 0)"/><path d="M155.83,157h-2.37v-1.58h6.44V157h-2.37v6.2h-1.71V157h0Z" transform="translate(0 0)"/><path d="M161.3,155.41H163v7.78H161.3v-7.78Z" transform="translate(0 0)"/><path d="M164.61,159.32h0a4.13,4.13,0,0,1,8.26,0h0A4.13,4.13,0,0,1,164.61,159.32Zm6.48,0h0a2.36,2.36,0,0,0-2.28-2.44h-0.08a2.33,2.33,0,0,0-2.33,2.33s0,0.06,0,.09h0a2.36,2.36,0,0,0,2.28,2.44h0.08a2.33,2.33,0,0,0,2.32-2.34s0-.05,0-0.08h0Z" transform="translate(0 0)"/><path d="M174.39,155.41H176l3.64,4.79v-4.79h1.69v7.78h-1.46l-3.77-4.94v4.94h-1.69v-7.78h0Z" transform="translate(0 0)"/><path d="M154.57,62h0a4,4,0,0,1,4-4h0.05a4,4,0,0,1,3.07,1.2l-1.09,1.26a2.87,2.87,0,0,0-2-.88,2.3,2.3,0,0,0-2.24,2.36V62h0a2.31,2.31,0,0,0,2.18,2.44h0.07a2.81,2.81,0,0,0,2-.91l1.09,1.1A4,4,0,0,1,158.55,66a3.93,3.93,0,0,1-4-3.88S154.57,62,154.57,62Z" transform="translate(0 0)"/><path d="M165.77,58.07h1.58l3.33,7.83H168.9l-0.71-1.74H164.9l-0.71,1.74h-1.74Zm1.8,4.58-1-2.52-1,2.52h2Z" transform="translate(0 0)"/><path d="M171.44,58.13h1.86l2,3.29,2-3.29h1.84V65.9h-1.7V60.83l-2.14,3.32h0l-2.17-3.29v5h-1.68V58.13h0Z" transform="translate(0 0)"/><path d="M181.08,58.13h3.22a2.66,2.66,0,0,1,3,2.69h0c0,1.8-1.4,2.73-3.14,2.73h-1.3V65.9h-1.71V58.13h-0.07ZM184.14,62a1.2,1.2,0,0,0,1.35-1.18h0a1.18,1.18,0,0,0-1.16-1.2l-0.23,0h-1.32V62h1.36Z" transform="translate(0 0)"/><path d="M190.61,58.07h1.58l3.33,7.83h-1.79L193,64.16h-3.29L189,65.9H187.3Zm1.8,4.58-1-2.52-1,2.52h2Z" transform="translate(0 0)"/><path d="M196.3,58.13H198V65.9H196.3V58.13Z" transform="translate(0 0)"/><path d="M199.66,62h0a4,4,0,0,1,4-4h0.08a4.27,4.27,0,0,1,3.05,1.07l-1.08,1.3a2.86,2.86,0,0,0-2-.79A2.34,2.34,0,0,0,201.45,62h0a2.33,2.33,0,0,0,2.19,2.47h0.17a2.72,2.72,0,0,0,1.61-.47V62.9H203.7V61.43h3.38V64.8a5,5,0,0,1-3.33,1.2,3.89,3.89,0,0,1-4.09-3.68Q199.66,62.16,199.66,62Z" transform="translate(0 0)"/><path d="M208.71,58.13h1.59l3.64,4.79V58.13h1.69V65.9h-1.46L210.4,61v4.9h-1.69V58.13Z" transform="translate(0 0)"/></g></svg>