<svg xmlns="http://www.w3.org/2000/svg" viewBox="0 0 295.01 207.22"><defs><style>.a{fill:none;stroke:#4f72aa;stroke-linecap:round;stroke-width:4px;}</style></defs><title>wachstum</title><polyline class="a" points="21.51 205.22 39.9 194.22 50.41 199.22 59.17 185.22 67.93 191.22 93.32 155.22 116.09 174.22 132.74 137.22 146.75 154.22 186.16 110.22 222.07 113.22 228.2 94.22 244.84 103.22 256.22 73.22 293.01 2.22"/><path d="M7.52,213.2v-0.1c0-1.3.66-2.43,2.34-3.67,1.16-.86,1.51-1.16,1.51-1.91a1,1,0,0,0-1.13-1.19,1.23,1.23,0,0,0-1.3,1.27H7.49a2.54,2.54,0,0,1,2.75-2.45c1.94,0,2.63,1.19,2.63,2.34s-0.49,1.69-1.94,2.75a4.24,4.24,0,0,0-1.63,1.69h3.87L13,213.2H7.52Z" transform="translate(-7.49 -19.15)"/><path d="M20,209.21c0,2.09-.65,4.14-2.94,4.14s-2.94-2-2.94-4.09,0.74-4.09,3-4.09S20,207,20,209.21Zm-4.33,0c0,1.46.19,2.89,1.4,2.89s1.38-1.34,1.38-2.93-0.22-2.84-1.35-2.84S15.69,207.53,15.69,209.24Z" transform="translate(-7.49 -19.15)"/><path d="M22.62,213.2V207a5.17,5.17,0,0,1-1.5.46v-1.13a4,4,0,0,0,1.94-1.09h1.07v7.92H22.62Z" transform="translate(-7.49 -19.15)"/><path d="M25.8,207.29a2.41,2.41,0,0,1,2.67-2.12c1.76,0,2.55,1,2.55,2.11a1.65,1.65,0,0,1-1,1.62v0a1.92,1.92,0,0,1,1.32,1.94c0,1.18-.73,2.48-2.89,2.48a2.53,2.53,0,0,1-2.84-2.28h1.46a1.33,1.33,0,0,0,1.43,1.12,1.23,1.23,0,0,0,1.33-1.34,1.22,1.22,0,0,0-1.44-1.3H27.75v-1.16h0.58c0.88,0,1.24-.31,1.24-1a1,1,0,0,0-1.13-1,1.07,1.07,0,0,0-1.2.95H25.8Z" transform="translate(-7.49 -19.15)"/><path d="M254,27.19v-0.1c0-1.3.66-2.43,2.34-3.67,1.16-.86,1.51-1.16,1.51-1.91a1,1,0,0,0-1.13-1.19,1.23,1.23,0,0,0-1.29,1.27H254a2.54,2.54,0,0,1,2.75-2.45c1.94,0,2.63,1.19,2.63,2.34s-0.49,1.69-1.94,2.75a4.23,4.23,0,0,0-1.63,1.69h3.87l-0.19,1.26H254Z" transform="translate(-7.49 -19.15)"/><path d="M266.54,23.19c0,2.09-.65,4.14-2.94,4.14s-2.94-2-2.94-4.09,0.74-4.09,3-4.09S266.54,21,266.54,23.19Zm-4.33,0c0,1.46.19,2.89,1.4,2.89S265,24.78,265,23.19s-0.22-2.84-1.36-2.84S262.21,21.52,262.21,23.23Z" transform="translate(-7.49 -19.15)"/><path d="M269.15,27.19V21a5.15,5.15,0,0,1-1.5.46V20.36a4,4,0,0,0,1.94-1.09h1.07v7.92h-1.51Z" transform="translate(-7.49 -19.15)"/><path d="M276.45,21.14a1,1,0,0,0-1.12-.84c-1.15,0-1.48,1.08-1.52,2.35a2.15,2.15,0,0,1,1.86-.86,2.42,2.42,0,0,1,2.46,2.63,2.71,2.71,0,0,1-2.82,2.91c-2.25,0-3-1.76-3-4s0.72-4.19,3.07-4.19a2.26,2.26,0,0,1,2.49,2h-1.45Zm0.18,3.39A1.32,1.32,0,0,0,275.28,23a1.31,1.31,0,0,0-1.37,1.51,1.47,1.47,0,0,0,1.36,1.64A1.38,1.38,0,0,0,276.63,24.54Z" transform="translate(-7.49 -19.15)"/></svg>