<?xml version="1.0" encoding="utf-8"?>
<!-- Generator: Adobe Illustrator 19.2.1, SVG Export Plug-In . SVG Version: 6.00 Build 0)  -->
<svg version="1.1" id="Calque_1" xmlns="http://www.w3.org/2000/svg" xmlns:xlink="http://www.w3.org/1999/xlink" x="0px" y="0px"
	 viewBox="0 0 1679 1367.8" style="enable-background:new 0 0 1679 1367.8;" xml:space="preserve">
<style type="text/css">

@keyframes dash {
    from {
        stroke-dashoffset: 1000;
    }
    to {
        stroke-dashoffset: 0;
    }
}

	.st0{enable-background:new    ;}
	.st1{fill:none;stroke:#000000;stroke-width:2;stroke-miterlimit:10;
	stroke-dasharray: 500;
    stroke-dashoffset: 900;
    animation: dash 3s ease-in-out reverse infinite;
	}
	.r{
	    animation: dash 3s ease-in-out infinite;

	}
</style>
<path class="o" d="M357.1,694c2.2-8.5,3.8-17.2,6.6-25.5c11.4-33.1,34-55.8,66.3-68.4c40-15.6,80-15,119.4,2.9c33.3,15.1,52.4,41.5,60.7,76.4
	c1.2,5.2,2.1,10.4,3.1,15.7c0.1,0.8,0,1.6,0,2.7c-28.7-16.3-60-17.3-91.4-17.1c-21.5,0.1-43,0.7-64.5,1c-3.5,0-7-0.7-10.5-1.1
	c0-0.8,0.1-1.6,0.1-2.3c48.3-0.8,96.6-1.5,145.4-2.3c-0.9-9.4-3.7-18.5-7.9-27.1c-6.6-13.5-16.2-24.4-29-32.3
	c-29.8-18.4-61.9-25-96.2-17.2c-40.4,9.2-63.9,36.3-75.8,74.6c-2.7,8.6-3.8,17.9-4.1,27c-0.4,11.9,7.6,19.7,19.4,18.9
	c18.1-1.2,36.1-3.9,54.2-5.2c29.9-2.2,59.8-4.8,89.7-5.3c19.2-0.3,38.6,2.6,56,12.2c11.3,6.3,15.3,13.7,13.2,26.3
	c-1.2,7.4-2.7,14.8-5.3,21.8c-9.9,26.6-27.9,46.8-52.7,59.7c-35.3,18.3-73,24.4-111.3,12.2c-42.1-13.5-70.4-41.5-80.7-85.6
	c-0.3-1.1-0.3-2.4-0.4-3.5c0.5-0.2,0.9-0.3,1.4-0.5c0.7,1.2,1.7,2.4,2,3.7c11.4,46.8,42.9,72.9,88.1,83c38,8.5,73.2,0.5,103.6-24.7
	c18-14.9,28-34.9,32.5-57.6c2.4-12-2.7-19.9-14.3-24.7c-17.4-7.1-35.7-8.3-54-7.1c-36.5,2.3-73,5.5-109.6,8.1
	c-7.5,0.5-15.1,0.8-22.4-0.2c-16-2-27.6-9.9-31.5-26.6C357.1,702,357.1,698,357.1,694z"/>
<path class="st0" d="M357.1,519.1"/>
<path d="M990.9,841.8c-12.7,0-24.8,0-37.6,0c0-2.1,0-4.1,0-6c-0.1-56.8-0.1-113.7-0.2-170.5c0-4.6-0.8-9.3-1.8-13.8
	c-4.2-18.4-17.4-27.9-36.1-26.5c-28.1,2.1-45.8,22.4-45.6,50.5c0.4,54.3,0.1,108.7,0.1,163c0,1-0.2,1.9-0.3,3.2
	c-12.3,0-24.4,0-36.8,0c0-107.4,0-214.8,0-322.6c12.1,0,24.3,0,36.9,0c0,35.8,0,71.6,0,107.4c0.5,0.4,1.1,0.9,1.6,1.3
	c0.3-0.9,0.4-1.9,0.9-2.7c13.8-22.6,42.2-35.4,68.7-31.4c11.9,1.8,23.1,4.9,32.2,13.3c12.4,11.4,16.2,26.5,17.2,42.4
	c0.9,13.9,0.9,28,0.9,42c0.1,48.2,0,96.3,0,144.5C990.9,837.6,990.9,839.4,990.9,841.8z M1198.1,720.5c0,23.9-1.8,47.6-9.2,70.5
	c-6.6,20.6-17.5,38.1-37.4,48.5c-29,15.4-71.9,10.9-94.8-10c-14.3-13.1-21.9-30.1-25.8-48.6c-9.2-43-9.4-86,2.3-128.5
	c5.5-20.1,15.9-37.3,34.4-48.5c29-17.5,74.2-13.9,98.3,8.1c14.5,13.2,21.6,30.5,26.1,49.1C1196.7,680.5,1198.1,700.4,1198.1,720.5z
	 M1063.5,721c0.6,11.5,0.7,23,1.8,34.4c1.4,15.5,4.1,30.7,12.1,44.4c14,24,47.4,26.2,64.5,4.3c6.5-8.3,10.2-18,12.2-28.1
	c6.9-34.6,6.7-69.5,1.4-104.3c-2.1-13.9-6.4-27.2-16.4-37.9c-14.8-15.9-42.3-15.3-56.6,1c-6.3,7.2-9.8,15.8-12.4,24.8
	C1064.4,679.7,1063.8,700.3,1063.5,721z M795.1,669.8c-13.8,0-25.8,0-37.9,0c-0.7-6.5-1-12.8-2-19c-3.8-22-17.4-29.7-38.7-28.3
	c-4.7,0.3-9.6,1.4-14.1,3c-12.9,4.8-19.1,14.7-20.8,28c-1.7,13.3,1.7,24.9,13.4,32.1c8.4,5.1,17.8,8.8,27.1,12.4
	c13.2,5.1,26.8,9,39.9,14.2c24.1,9.7,36.3,28,37.6,53.9c0.6,12.1-0.3,24-4.1,35.5c-8.4,25.6-27,39.7-52.7,44.8
	c-19.6,3.9-39.2,2.8-58.1-3.7c-26.7-9.1-39.8-29.3-43.7-56.2c-1.1-7.6-1.3-15.2-1.9-23.3c12.6,0,24.8,0,37.1,0
	c0.9,7.3,1.4,14.8,2.9,22.1c6.5,31.3,43.9,44.6,69.5,25.3c17.2-13,21.2-49-2.1-63.6c-9.3-5.8-19.9-9.8-30.2-14
	c-10.8-4.3-22-7.6-32.9-11.7c-25.9-9.5-38.2-28.7-39.3-55.6c-0.8-17.8,2.5-34.5,14.5-48.5c9.4-10.9,21.4-17.3,35.1-20.8
	c18.2-4.7,36.6-4.8,54.8-0.2c21.6,5.5,36.2,18.8,41.5,40.7C792.7,647.5,793.5,658.4,795.1,669.8z M1243.2,628.8c-12,0-23.2,0-34.8,0
	c0-9.9,0-19.3,0-29.4c11.4,0,22.8,0,34.7,0c0-23.9,0-47.1,0-70.6c12.4,0,24.4,0,36.9,0c0,23.3,0,46.5,0,70.4c14.2,0,27.9,0,41.9,0
	c0,10.1,0,19.5,0,29.6c-13.6,0-27.4,0-41.7,0c0,2.4,0,4.2,0,5.9c0,49.8,0,99.6,0,149.4c0,4.1,0.3,8.3,1,12.4
	c1.4,9,6.7,14.5,15.8,15.4c6.4,0.6,12.9,0.1,19.4,0.1c1.6,0,3.2-0.2,5.4-0.4c0,9.7,0.1,19-0.1,28.3c0,0.9-1.6,2.5-2.7,2.7
	c-16.4,2.4-32.8,3.9-49.1-0.2c-15.6-3.9-23.7-13.6-25.6-30c-0.7-5.6-1-11.3-1-16.9c-0.1-53.3,0-106.6,0-159.9
	C1243.2,633.5,1243.2,631.5,1243.2,628.8z"/>
<path class="st1" d="M161.9,690.9l507.6-507.6"/>
<line class="st1 r" x1="889.6" y1="1092.6" x2="1555.7" y2="426.5"/>
</svg>
