<?xml version="1.0" encoding="utf-8"?>
<!-- Generator: Adobe Illustrator 19.2.1, SVG Export Plug-In . SVG Version: 6.00 Build 0)  -->
<svg version="1.1" id="Calque_1" xmlns="http://www.w3.org/2000/svg" xmlns:xlink="http://www.w3.org/1999/xlink" x="0px" y="0px"
	 viewBox="0 0 26 19.6" style="enable-background:new 0 0 26 19.6;" xml:space="preserve">
<path d="M25.4,3.9H0.6C0.3,3.9,0,3.6,0,3.2V0.6C0,0.3,0.3,0,0.6,0h24.7C25.7,0,26,0.3,26,0.6v2.6C26,3.6,25.7,3.9,25.4,3.9z"/>
<path d="M25.4,11.8H0.6c-0.4,0-0.6-0.3-0.6-0.6V8.5c0-0.4,0.3-0.6,0.6-0.6h24.7c0.4,0,0.6,0.3,0.6,0.6v2.6
	C26,11.5,25.7,11.8,25.4,11.8z"/>
<path d="M25.4,19.6H0.6C0.3,19.6,0,19.3,0,19v-2.6c0-0.4,0.3-0.6,0.6-0.6h24.7c0.4,0,0.6,0.3,0.6,0.6V19
	C26,19.3,25.7,19.6,25.4,19.6z"/>
</svg>
