<?xml version="1.0" encoding="utf-8"?>
<!-- Generator: Adobe Illustrator 19.2.1, SVG Export Plug-In . SVG Version: 6.00 Build 0)  -->
<svg version="1.1" id="Calque_1" xmlns="http://www.w3.org/2000/svg" xmlns:xlink="http://www.w3.org/1999/xlink" x="0px" y="0px"
	 viewBox="0 0 29.8 22.4" style="enable-background:new 0 0 29.8 22.4;" xml:space="preserve">
<path d="M22.2,21.4L4.8,3.9C4.5,3.6,4.5,3.2,4.8,3l1.8-1.8c0.3-0.3,0.7-0.3,0.9,0L25,18.6c0.3,0.3,0.3,0.7,0,0.9l-1.8,1.8
	C22.9,21.6,22.5,21.6,22.2,21.4z"/>
<path d="M4.8,18.6L22.2,1.1c0.3-0.3,0.7-0.3,0.9,0L25,3c0.3,0.3,0.3,0.7,0,0.9L7.5,21.4c-0.3,0.3-0.7,0.3-0.9,0l-1.8-1.8
	C4.5,19.3,4.5,18.9,4.8,18.6z"/>
</svg>
